<?xml version="1.0" standalone="no"?>
<!DOCTYPE svg PUBLIC "-//W3C//DTD SVG 1.1//EN" "http://www.w3.org/Graphics/SVG/1.1/DTD/svg11.dtd" >
<svg xmlns="http://www.w3.org/2000/svg">
<metadata>Generated by IcoMoon</metadata>
<defs>
<font id="tripadvisor" horiz-adv-x="1024">
<font-face units-per-em="1024" ascent="819.2" descent="-204.8" />
<missing-glyph horiz-adv-x="1024" />
<glyph unicode="&#x20;" horiz-adv-x="225.28" d="" />
<glyph unicode="&#x21;" glyph-name="exclam" horiz-adv-x="252" d="M95.232 207.36l-14.336 522.24h90.112l-14.336-522.24h-61.44zM125.952 3.584q-25.6 0-42.496 17.408t-16.896 41.984q0 25.6 16.896 43.008t42.496 17.408 42.496-17.408 16.896-43.008q0-24.576-16.896-41.984t-42.496-17.408z" />
<glyph unicode="&#x22;" glyph-name="quotedbl" horiz-adv-x="399" d="M79.872 526.848v202.752h73.728v-202.752h-73.728zM245.76 526.848v202.752h73.728v-202.752h-73.728z" />
<glyph unicode="&#x23;" glyph-name="numbersign" horiz-adv-x="641" d="M113.664 12.8l23.552 202.752h-96.256v77.824h104.448l18.432 155.648h-122.88v77.824h131.072l23.552 202.752h83.968l-23.552-202.752h163.84l23.552 202.752h83.968l-23.552-202.752h96.256v-77.824h-104.448l-18.432-155.648h122.88v-77.824h-131.072l-23.552-202.752h-83.968l23.552 202.752h-163.84l-23.552-202.752h-83.968zM229.376 293.376h163.84l18.432 155.648h-163.84z" />
<glyph unicode="&#x24;" glyph-name="dollar" horiz-adv-x="581" d="M290.816-1.536q-76.8 0-132.608 29.184t-86.528 80.896-30.72 118.272h88.064q0-68.608 46.592-108.544t115.2-39.936q74.752 0 115.712 33.28t40.96 98.816q0 51.2-36.864 80.384t-100.352 48.64l-71.68 21.504q-80.896 23.552-129.024 72.704t-48.128 126.976q0 53.248 30.72 94.72t82.432 65.024 114.176 23.552q72.704 0 123.904-27.136t78.336-73.728 27.136-103.936h-87.040q0 57.344-39.424 92.16t-102.912 34.816q-65.536 0-103.424-28.16t-37.888-75.264q0-44.032 28.672-74.24t97.28-51.712l90.112-28.672q51.2-15.36 89.6-41.984t60.416-64 22.016-86.528q0-59.392-28.672-109.056t-83.456-78.848-132.608-29.184zM253.952-97.792v935.936h75.776v-935.936h-75.776z" />
<glyph unicode="&#x25;" glyph-name="percent" horiz-adv-x="788" d="M133.12 67.072l-43.008 43.008 565.248 565.248 43.008-43.008zM573.44-1.536q-53.248 0-93.184 23.552t-62.464 63.488-22.528 89.088 22.528 89.088 62.464 63.488 93.184 23.552 93.184-23.552 62.464-63.488 22.528-89.088-22.528-89.088-62.464-63.488-93.184-23.552zM573.44 64q46.080 0 76.288 31.232t30.208 79.36-30.208 79.36-76.288 31.232-76.288-31.232-30.208-79.36 30.208-79.36 76.288-31.232zM215.040 391.68q-53.248 0-93.184 23.552t-62.464 63.488-22.528 89.088 22.528 89.088 62.464 63.488 93.184 23.552 93.184-23.552 62.464-63.488 22.528-89.088-22.528-89.088-62.464-63.488-93.184-23.552zM215.040 457.216q46.080 0 76.288 31.232t30.208 79.36-30.208 79.36-76.288 31.232-76.288-31.232-30.208-79.36 30.208-79.36 76.288-31.232z" />
<glyph unicode="&#x26;" glyph-name="ampersand" horiz-adv-x="654" d="M235.52-1.536q-56.32 0-102.912 24.576t-74.24 70.144-27.648 108.032q0 56.32 26.624 98.304t66.048 71.68 77.312 46.080l82.944 36.864q60.416 26.624 85.504 54.272t25.088 70.656q0 38.912-26.624 62.976t-65.536 24.064q-37.888 0-67.072-25.088t-29.184-70.144q0-34.816 19.968-69.12t42.496-60.928l358.4-428.032h-108.544l-316.416 377.856q-30.72 36.864-56.32 79.36t-25.6 98.816q0 50.176 23.552 89.6t64.512 62.464 92.16 23.040q52.224 0 91.136-20.992t60.928-56.32 22.016-79.36q0-71.68-40.96-118.272t-103.424-75.264l-87.040-39.936q-59.392-27.648-91.648-61.952t-32.256-85.504q0-58.368 35.84-93.184t94.208-34.816q46.080 0 87.040 24.576t77.824 64.512l31.744 33.792 109.568 113.664 49.152-55.296-107.52-112.64-24.576-25.6q-37.888-38.912-72.192-66.56t-72.704-41.984-91.648-14.336z" />
<glyph unicode="&#x27;" glyph-name="quotesingle" horiz-adv-x="233" d="M79.872 526.848v202.752h73.728v-202.752h-73.728z" />
<glyph unicode="&#x28;" glyph-name="parenleft" horiz-adv-x="264" d="M164.864-126.464q-34.816 54.272-63.488 126.976t-46.592 157.184-17.92 172.544 17.92 172.544 46.592 157.696 63.488 126.464h76.8q-53.248-91.136-88.064-210.432t-34.816-246.272 34.816-246.272 88.064-210.432h-76.8z" />
<glyph unicode="&#x29;" glyph-name="parenright" horiz-adv-x="264" d="M22.528-126.464q54.272 91.136 88.576 210.432t34.304 246.272-34.304 246.272-88.576 210.432h76.8q34.816-53.248 63.488-126.464t46.592-157.696 17.92-172.544-17.92-172.544-46.592-157.184-63.488-126.976h-76.8z" />
<glyph unicode="&#x2a;" glyph-name="asterisk" horiz-adv-x="367" d="M241.664 419.328l-78.848 138.24 20.48 14.336 19.456 15.36 107.52-118.784zM124.928 419.328l-68.608 49.152 107.52 118.784 19.456-15.36 20.48-14.336zM176.128 548.352l-155.648 32.768 25.6 79.872 145.408-65.536-8.192-23.552zM158.72 571.904l-17.408 157.696h83.968l-17.408-157.696h-49.152zM190.464 548.352l-7.168 23.552-8.192 23.552 145.408 65.536 25.6-79.872z" />
<glyph unicode="&#x2b;" glyph-name="plus" horiz-adv-x="494" d="M35.84 335.36v71.68h421.888v-71.68h-421.888zM210.944 160.256v421.888h71.68v-421.888h-71.68z" />
<glyph unicode="&#x2c;" glyph-name="comma" horiz-adv-x="262" d="M69.632-107.008v49.152h8.192q29.696 0 46.080 14.848t19.456 50.688q-6.144-4.096-19.456-4.096-22.528 0-39.424 16.896t-16.896 42.496 16.896 43.008 42.496 17.408q32.768 0 50.176-25.088t17.408-70.144q0-67.584-29.184-101.376t-83.456-33.792h-12.288z" />
<glyph unicode="&#x2d;" glyph-name="hyphen" horiz-adv-x="295" d="M15.36 320v71.68h264.192v-71.68h-264.192z" />
<glyph unicode="&#x2e;" glyph-name="period" horiz-adv-x="254" d="M126.976 3.584q-25.6 0-42.496 17.408t-16.896 41.984q0 25.6 16.896 42.496t42.496 16.896 42.496-16.896 16.896-42.496q0-24.576-16.896-41.984t-42.496-17.408z" />
<glyph unicode="&#x2f;" glyph-name="slash" horiz-adv-x="410" d="M20.48-48.64l286.72 839.68h81.92l-286.72-839.68h-81.92z" />
<glyph unicode="&#x30;" glyph-name="zero" horiz-adv-x="629" d="M319.488-1.536q-53.248 0-102.912 22.528t-89.088 68.608-62.976 116.224-23.552 165.376 23.552 165.376 62.976 116.224 89.088 68.608 102.912 22.528q70.656 0 131.584-40.448t98.816-122.88 37.888-209.408-37.888-209.408-98.816-122.88-131.584-40.448zM319.488 78.336q47.104 0 87.552 28.672t65.536 93.184 25.088 171.008-25.088 171.008-65.536 93.184-87.552 28.672-90.112-28.672-70.656-93.184-27.648-171.008 27.648-171.008 70.656-93.184 90.112-28.672z" />
<glyph unicode="&#x31;" glyph-name="one" horiz-adv-x="349" d="M171.008 12.8v633.856h-134.144v82.944h222.208v-716.8h-88.064z" />
<glyph unicode="&#x32;" glyph-name="two" horiz-adv-x="540" d="M52.224 12.8v70.656l248.832 263.168q48.128 50.176 69.632 93.696t21.504 90.624q0 59.392-34.816 96.256t-89.088 36.864q-60.416 0-93.696-36.352t-38.4-91.648h-84.992q3.072 59.392 29.696 105.984t74.24 74.24 115.2 27.648q64.512 0 111.104-27.136t72.192-73.728 25.6-105.984q0-45.056-13.312-84.48t-38.912-77.312-61.44-76.8l-188.416-202.752h310.272v-82.944h-435.2z" />
<glyph unicode="&#x33;" glyph-name="three" horiz-adv-x="538" d="M259.072-1.536q-76.8 0-128 32.768t-77.312 83.968-26.112 106.496h84.992q3.072-37.888 19.968-70.656t49.152-52.736 78.336-19.968q65.536 0 106.496 36.864t40.96 105.472q0 57.344-39.424 92.672t-103.936 35.328h-40.96v74.752h40.96q57.344 0 92.672 32.768t35.328 87.040-35.84 88.064-99.328 33.792q-58.368 0-96.256-35.328t-43.008-88.576h-80.896q2.048 56.32 29.696 102.4t76.8 73.216 113.664 27.136q66.56 0 115.712-25.6t76.8-69.12 27.648-97.792q0-37.888-14.848-70.144t-37.888-55.808-46.592-35.84q49.152-18.432 83.968-61.952t34.816-108.032q0-61.44-29.184-111.616t-82.432-79.872-125.952-29.696z" />
<glyph unicode="&#x34;" glyph-name="four" horiz-adv-x="544" d="M360.448 12.8v187.392h-327.68v49.152l320.512 480.256h95.232v-455.68h72.704v-73.728h-72.704v-187.392h-88.064zM143.36 273.92h217.088v265.216q0 15.36 1.536 33.792t2.56 34.816z" />
<glyph unicode="&#x35;" glyph-name="five" horiz-adv-x="570" d="M282.624-1.536q-73.728 0-126.464 31.232t-80.896 81.408-28.16 107.52h86.016q1.024-39.936 20.992-72.192t53.76-51.2 76.8-18.944q75.776 0 115.712 48.128t39.936 118.784q0 69.632-39.424 118.272t-116.224 48.64q-46.080 0-86.528-26.624t-61.952-69.632h-82.944l38.912 415.744h408.576v-77.824h-362.496l31.744 39.936-36.864-329.728-14.336 18.432q16.384 43.008 66.56 74.24t117.76 31.232q71.68 0 121.856-31.232t76.8-86.016 26.624-125.44-31.744-125.952-87.040-87.040-126.976-31.744z" />
<glyph unicode="&#x36;" glyph-name="six" d="M304.128-1.536q-75.776 0-132.096 33.28t-87.040 88.576-30.72 122.88q0 52.224 13.824 94.72t37.888 81.92 53.76 81.408l160.768 228.352h98.304l-221.184-311.296-36.864-15.36q34.816 37.888 75.264 57.344t94.72 19.456q61.44 0 111.616-30.208t79.872-83.456 29.696-122.88q0-70.656-33.28-125.952t-89.6-87.040-124.928-31.744zM304.128 76.288q44.032 0 79.872 19.968t57.856 56.832 22.016 86.016q0 50.176-22.016 86.528t-57.856 56.32-79.872 19.968q-43.008 0-79.872-19.968t-59.392-56.32-22.528-86.528q0-49.152 22.528-86.016t59.392-56.832 79.872-19.968z" />
<glyph unicode="&#x37;" glyph-name="seven" horiz-adv-x="528" d="M146.432 12.8l260.096 638.976h-367.616v77.824h458.752v-69.632l-261.12-647.168h-90.112z" />
<glyph unicode="&#x38;" glyph-name="eight" horiz-adv-x="545" d="M272.384-1.536q-73.728 0-125.44 29.696t-78.336 77.824-26.624 104.448q0 63.488 32.256 112.64t82.432 70.656q-37.888 21.504-66.048 60.928t-28.16 101.888q0 54.272 28.16 96.768t75.776 66.56 105.984 24.064q59.392 0 106.496-24.064t75.264-66.56 28.16-96.768q0-62.464-28.16-101.888t-66.048-60.928q51.2-21.504 82.944-70.656t31.744-112.64q0-56.32-26.624-104.448t-77.824-77.824-125.952-29.696zM272.384 78.336q64.512 0 103.424 39.424t38.912 97.792q0 60.416-38.4 99.84t-103.936 39.424q-64.512 0-102.912-39.424t-38.4-99.84q0-58.368 38.4-97.792t102.912-39.424zM272.384 429.568q56.32 0 91.648 33.28t35.328 85.504-35.328 85.504-91.648 33.28q-55.296 0-90.624-33.28t-35.328-85.504 34.816-85.504 91.136-33.28z" />
<glyph unicode="&#x39;" glyph-name="nine" d="M195.584 12.8l221.184 311.296 36.864 15.36q-34.816-37.888-71.168-57.344t-93.696-19.456q-60.416 0-112.128 30.208t-82.944 83.968-31.232 122.368q0 71.68 33.28 126.464t89.6 86.528 124.928 31.744q78.848 0 134.656-32.768t85.504-88.064 29.696-123.904q0-51.2-13.824-93.696t-37.376-81.92-54.272-82.432l-160.768-228.352h-98.304zM310.272 340.48q44.032 0 80.384 19.968t58.88 56.832 22.528 86.016q0 50.176-22.528 86.528t-58.88 56.32-80.384 19.968q-43.008 0-79.36-19.968t-58.368-56.32-22.016-86.528q0-49.152 22.016-86.016t58.368-56.832 79.36-19.968z" />
<glyph unicode="&#x3a;" glyph-name="colon" horiz-adv-x="254" d="M126.976 3.584q-25.6 0-42.496 17.408t-16.896 41.984q0 25.6 16.896 42.496t42.496 16.896 42.496-16.896 16.896-42.496q0-24.576-16.896-41.984t-42.496-17.408zM126.976 393.728q-25.6 0-42.496 17.408t-16.896 41.984q0 25.6 16.896 42.496t42.496 16.896 42.496-16.896 16.896-42.496q0-24.576-16.896-41.984t-42.496-17.408z" />
<glyph unicode="&#x3b;" glyph-name="semicolon" horiz-adv-x="262" d="M69.632-107.008v49.152h8.192q29.696 0 46.080 14.848t19.456 50.688q-6.144-4.096-19.456-4.096-22.528 0-39.424 16.896t-16.896 42.496 16.896 43.008 42.496 17.408q32.768 0 50.176-25.088t17.408-70.144q0-67.584-29.184-101.376t-83.456-33.792h-12.288zM126.976 393.728q-25.6 0-42.496 17.408t-16.896 41.984q0 25.6 16.896 42.496t42.496 16.896 42.496-16.896 16.896-42.496q0-24.576-16.896-41.984t-42.496-17.408z" />
<glyph unicode="&#x3c;" glyph-name="less" horiz-adv-x="494" d="M457.728 132.608l-421.888 198.656v79.872l421.888 198.656v-77.824l-349.184-160.768 349.184-160.768v-77.824z" />
<glyph unicode="&#x3d;" glyph-name="equal" horiz-adv-x="494" d="M35.84 452.096v71.68h421.888v-71.68h-421.888zM35.84 218.624v71.68h421.888v-71.68h-421.888z" />
<glyph unicode="&#x3e;" glyph-name="greater" horiz-adv-x="494" d="M35.84 132.608v77.824l349.184 160.768-349.184 160.768v77.824l421.888-198.656v-79.872z" />
<glyph unicode="&#x3f;" glyph-name="question" horiz-adv-x="502" d="M209.92 207.36v30.72q0 49.152 9.728 79.36t31.744 54.272 57.856 52.736q37.888 29.696 54.784 59.392t16.896 64.512q0 51.2-35.328 84.48t-94.72 33.28q-57.344 0-96.768-35.328t-41.472-94.72h-79.872q0 54.272 26.624 101.376t75.776 76.8 115.712 29.696q62.464 0 109.056-24.576t72.704-66.56 26.112-96.256q0-56.32-24.064-98.304t-72.192-80.896q-26.624-21.504-44.032-39.936t-26.112-40.96-8.704-57.344v-31.744h-73.728zM250.88 3.584q-25.6 0-42.496 17.408t-16.896 41.984q0 25.6 16.896 43.008t42.496 17.408 42.496-17.408 16.896-43.008q0-24.576-16.896-41.984t-42.496-17.408z" />
<glyph unicode="&#x40;" glyph-name="at" horiz-adv-x="965" d="M493.568-165.376q-86.016 0-164.352 28.672t-140.288 86.016-97.792 142.336-35.84 197.632q0 102.4 35.328 185.856t96.768 143.872 139.776 92.672 164.352 32.256q98.304 0 176.64-30.208t133.632-84.48 84.48-126.976 29.184-158.72q0-83.968-21.504-143.36t-60.416-90.112-93.184-30.72q-52.224 0-82.944 29.696t-40.96 67.584q-19.456-38.912-60.928-68.096t-96.768-29.184q-60.416 0-104.96 28.16t-68.096 75.776-23.552 105.984 26.112 105.984 70.656 75.776 99.84 28.16q49.152 0 82.432-17.92t52.736-45.568v51.2h79.872v-229.376q0-50.176 19.968-76.288t50.688-26.112q45.056 0 68.096 45.056t23.040 133.12q0 109.568-46.080 184.32t-123.904 112.64-174.080 37.888q-63.488 0-125.952-23.552t-113.664-71.168-81.92-118.784-30.72-165.376 30.72-165.376 81.92-118.784 114.176-71.168 127.488-23.552q51.2 0 95.232 7.68t86.528 24.064 86.528 41.984v-83.968q-39.936-20.48-81.408-35.328t-87.040-22.528-99.84-7.68zM468.992 155.136q52.224 0 88.576 36.864t36.352 97.28-36.352 97.28-88.576 36.864-88.576-36.864-36.352-97.28 36.352-97.28 88.576-36.864z" />
<glyph unicode="&#x41;" glyph-name="A" horiz-adv-x="670" d="M9.216 12.8l275.456 716.8h100.352l275.456-716.8h-91.136l-216.064 570.368q-5.12 14.336-9.216 25.088t-9.216 24.064q-4.096-13.312-8.704-24.064t-9.728-25.088l-216.064-570.368h-91.136zM138.24 199.168v79.872h393.216v-79.872h-393.216z" />
<glyph unicode="&#x42;" glyph-name="B" horiz-adv-x="616" d="M90.112 12.8v716.8h242.688q58.368 0 100.864-22.528t65.536-61.44 23.040-87.040q0-58.368-30.208-95.744t-68.096-52.736q57.344-22.528 93.184-69.12t35.84-119.296q0-60.416-29.696-108.032t-80.896-74.24-114.688-26.624h-237.568zM178.176 92.672h147.456q61.44 0 100.352 36.352t38.912 98.816q0 63.488-38.912 99.84t-100.352 36.352h-147.456v-271.36zM178.176 439.808h145.408q47.104 0 79.872 27.136t32.768 79.36q0 51.2-32.768 78.336t-79.872 27.136h-145.408v-211.968z" />
<glyph unicode="&#x43;" glyph-name="C" horiz-adv-x="762" d="M393.216-1.536q-67.584 0-130.048 24.576t-112.128 72.704-78.848 117.248-29.184 158.208 29.184 158.208 78.848 117.248 112.64 72.704 129.536 24.576q83.968 0 153.088-32.256t115.2-91.136 59.392-140.8h-88.064q-13.312 58.368-48.64 99.84t-84.992 62.976-105.984 21.504q-66.56 0-126.464-33.28t-97.792-98.304-37.888-161.28q0-95.232 37.888-160.768t97.792-98.816 126.464-33.28q87.040 0 153.6 48.64t86.016 136.704h88.064q-13.312-81.92-60.416-141.312t-116.224-91.648-151.040-32.256z" />
<glyph unicode="&#x44;" glyph-name="D" horiz-adv-x="680" d="M90.112 12.8v716.8h194.56q101.376 0 180.736-41.984t125.44-122.368 46.080-194.048-46.080-194.048-125.44-122.368-180.736-41.984h-194.56zM178.176 92.672h100.352q77.824 0 138.752 31.744t96.256 93.696 35.328 153.088-35.328 153.088-96.256 93.696-138.752 31.744h-100.352v-557.056z" />
<glyph unicode="&#x45;" glyph-name="E" horiz-adv-x="567" d="M90.112 12.8v716.8h420.864v-79.872h-332.8v-216.064h280.576v-79.872h-280.576v-261.12h335.872v-79.872h-423.936z" />
<glyph unicode="&#x46;" glyph-name="F" horiz-adv-x="570" d="M90.112 12.8v716.8h420.864v-79.872h-332.8v-252.928h268.288v-79.872h-268.288v-304.128h-88.064z" />
<glyph unicode="&#x47;" glyph-name="G" horiz-adv-x="767" d="M393.216-1.536q-67.584 0-130.048 24.576t-112.128 72.704-78.848 117.248-29.184 158.208 29.184 158.208 78.848 117.248 112.64 72.704 129.536 24.576q81.92 0 148.992-28.16t112.128-80.896 57.344-125.44h-88.064q-12.288 49.152-46.592 83.456t-81.92 52.736-101.888 18.432q-66.56 0-126.464-33.28t-97.792-98.304-37.888-161.28q0-95.232 37.888-160.768t97.792-98.816 126.464-33.28q117.76 0 181.76 65.536t68.096 192.512l43.008-38.912h-269.312v75.776h307.2v-27.648q0-84.992-25.088-150.016t-69.632-109.056-104.96-66.048-131.072-22.016z" />
<glyph unicode="&#x48;" glyph-name="H" horiz-adv-x="774" d="M90.112 12.8v716.8h88.064v-294.912h417.792v294.912h88.064v-716.8h-88.064v342.016h-417.792v-342.016h-88.064z" />
<glyph unicode="&#x49;" glyph-name="I" horiz-adv-x="268" d="M90.112 12.8v716.8h88.064v-716.8h-88.064z" />
<glyph unicode="&#x4a;" glyph-name="J" horiz-adv-x="572" d="M270.336-1.536q-60.416 0-111.104 26.112t-80.384 78.336-29.696 130.048v40.96h88.064v-46.080q0-68.608 36.864-109.056t96.256-40.448 95.744 40.448 36.352 109.056v501.76h88.064v-489.472q0-79.872-29.696-133.632t-79.36-80.896-111.104-27.136z" />
<glyph unicode="&#x4b;" glyph-name="K" horiz-adv-x="586" d="M456.704 12.8l-283.648 347.136v26.624l277.504 343.040h109.568l-288.768-354.304 293.888-362.496h-108.544zM90.112 12.8v716.8h88.064v-716.8h-88.064z" />
<glyph unicode="&#x4c;" glyph-name="L" horiz-adv-x="567" d="M90.112 12.8v716.8h88.064v-636.928h335.872v-79.872h-423.936z" />
<glyph unicode="&#x4d;" glyph-name="M" horiz-adv-x="856" d="M428.032 12.8v117.76q5.12 21.504 11.264 40.448t12.288 34.304l216.064 524.288h98.304v-716.8h-83.968v448.512q0 28.672 2.048 52.736t4.096 52.736l-227.328-553.984h-32.768zM90.112 12.8v716.8h98.304l216.064-524.288q6.144-15.36 12.8-34.304t10.752-40.448v-117.76h-32.768l-227.328 553.984q2.048-28.672 4.096-52.736t2.048-52.736v-448.512h-83.968z" />
<glyph unicode="&#x4e;" glyph-name="N" horiz-adv-x="748" d="M90.112 12.8v716.8h86.016l398.336-582.656q-1.024 26.624-1.024 48.128v534.528h83.968v-716.8h-84.992l-400.384 582.656q2.048-26.624 2.048-48.128v-534.528h-83.968z" />
<glyph unicode="&#x4f;" glyph-name="O" horiz-adv-x="803" d="M401.408-1.536q-69.632 0-134.144 24.576t-115.2 72.704-79.872 117.248-29.184 158.208 29.184 158.208 79.872 117.248 115.2 72.704 134.144 24.576 134.144-24.576 115.2-72.704 79.872-117.248 29.184-158.208-29.184-158.208-79.872-117.248-115.2-72.704-134.144-24.576zM401.408 78.336q51.2 0 99.328 18.944t87.040 55.808 61.44 91.648 22.528 126.464-22.528 126.464-61.44 91.648-87.040 55.808-99.328 18.944-99.328-18.944-87.040-55.808-61.44-91.648-22.528-126.464 22.528-126.464 61.44-91.648 87.040-55.808 99.328-18.944z" />
<glyph unicode="&#x50;" glyph-name="P" horiz-adv-x="605" d="M90.112 12.8v716.8h241.664q64.512 0 115.712-26.624t80.896-75.264 29.696-115.2-29.696-115.2-80.896-75.264-115.712-26.624h-153.6v-282.624h-88.064zM178.176 373.248h148.48q62.464 0 102.912 36.864t40.448 102.4-40.448 102.4-102.912 36.864h-148.48v-278.528z" />
<glyph unicode="&#x51;" glyph-name="Q" horiz-adv-x="803" d="M401.408 12.8q-69.632 0-134.144 24.576t-115.2 71.168-79.872 114.688-29.184 155.136 29.184 155.136 79.872 114.688 115.2 71.168 134.144 24.576 134.144-24.576 115.2-70.656 79.872-111.616 29.184-147.456q0-105.472-44.032-180.224t-112.64-116.736h156.672v-79.872h-358.4zM401.408 92.672q51.2 0 99.328 18.432t87.040 54.784 61.44 89.6 22.528 122.88-22.528 122.88-61.44 89.6-87.040 54.784-99.328 18.432q-68.608 0-130.56-32.768t-100.864-96.256-38.912-156.672 38.912-156.672 100.864-96.256 130.56-32.768z" />
<glyph unicode="&#x52;" glyph-name="R" horiz-adv-x="630" d="M90.112 12.8v716.8h244.736q69.632 0 122.368-27.648t82.432-75.776 29.696-111.616q0-57.344-24.576-102.4t-68.608-73.216-103.424-35.328l-16.384-4.096h-178.176v-286.72h-88.064zM497.664 12.8l-162.816 317.44 91.136 8.192 166.912-325.632h-95.232zM178.176 377.344h151.552q71.68 0 111.616 36.352t39.936 100.864-39.936 100.864-111.616 36.352h-151.552v-274.432z" />
<glyph unicode="&#x53;" glyph-name="S" horiz-adv-x="581" d="M291.84-1.536q-71.68 0-124.928 28.672t-82.432 79.36-29.184 116.224h88.064q0-66.56 44.032-105.472t108.544-38.912q66.56 0 105.472 35.84t38.912 98.304q0 33.792-17.92 57.344t-48.128 40.448-69.12 29.184l-70.656 23.552q-73.728 24.576-119.296 71.168t-45.568 119.296q0 57.344 28.672 99.84t78.336 66.56 112.128 24.064q70.656 0 120.32-25.6t75.776-70.144 26.112-101.888h-87.040q0 52.224-37.376 86.016t-97.792 33.792-95.744-31.232-35.328-71.168 27.136-71.168 89.6-52.736l97.28-33.792q48.128-16.384 83.456-42.496t54.272-61.952 18.944-82.944q0-59.392-27.648-109.568t-80.384-80.384-128.512-30.208z" />
<glyph unicode="&#x54;" glyph-name="T" horiz-adv-x="604" d="M258.048 12.8v716.8h88.064v-716.8h-88.064zM40.96 649.728v79.872h522.24v-79.872h-522.24z" />
<glyph unicode="&#x55;" glyph-name="U" horiz-adv-x="672" d="M335.872-1.536q-69.632 0-127.488 29.696t-92.16 89.088-34.304 146.432v465.92h86.016v-477.184q0-52.224 22.016-91.648t60.416-60.928 85.504-21.504q48.128 0 86.016 21.504t59.904 60.928 22.016 91.648v477.184h86.016v-465.92q0-87.040-34.304-146.432t-92.16-89.088-127.488-29.696z" />
<glyph unicode="&#x56;" glyph-name="V" horiz-adv-x="657" d="M278.528 12.8l-270.336 716.8h94.208l206.848-569.344q5.12-14.336 10.24-27.648t9.216-27.648q5.12 14.336 9.728 27.648t9.728 27.648l205.824 569.344h95.232l-270.336-716.8h-100.352z" />
<glyph unicode="&#x57;" glyph-name="W" horiz-adv-x="897" d="M194.56 12.8l-182.272 716.8h96.256l126.976-542.72q4.096-13.312 7.168-27.136t6.144-35.328q3.072 21.504 6.144 35.328t7.168 27.136l136.192 542.72h100.352l136.192-542.72q4.096-13.312 7.168-27.136t6.144-35.328q3.072 21.504 6.144 35.328t7.168 27.136l126.976 542.72h96.256l-182.272-716.8h-106.496l-130.048 512q-4.096 19.456-8.704 37.888t-8.704 37.888q-4.096-19.456-8.192-37.888t-9.216-37.888l-130.048-512h-106.496z" />
<glyph unicode="&#x58;" glyph-name="X" horiz-adv-x="625" d="M16.384 12.8l251.904 400.384 31.744 26.624q8.192 18.432 16.384 31.744t15.36 26.624l142.336 231.424h103.424l-221.184-351.232-30.72-35.84q-7.168-16.384-15.872-31.232t-16.896-26.112l-169.984-272.384h-106.496zM501.76 12.8l-172.032 272.384q-7.168 11.264-15.872 26.112t-16.896 31.232l-31.744 40.96-215.040 346.112h104.448l140.288-231.424q8.192-12.288 15.872-26.112t14.848-31.232l28.672-30.72 253.952-397.312h-106.496z" />
<glyph unicode="&#x59;" glyph-name="Y" horiz-adv-x="573" d="M242.688 12.8v297.984l-223.232 418.816h100.352l141.312-275.456q8.192-15.36 13.312-27.648t12.288-32.768q7.168 20.48 12.8 32.768t12.8 27.648l141.312 275.456h100.352l-223.232-418.816v-297.984h-88.064z" />
<glyph unicode="&#x5a;" glyph-name="Z" horiz-adv-x="620" d="M50.176 12.8v79.872l398.336 557.056h-379.904v79.872h480.256v-79.872l-399.36-557.056h417.792v-79.872h-517.12z" />
<glyph unicode="&#x5b;" glyph-name="bracketleft" horiz-adv-x="297" d="M40.96-126.464v913.408h210.944v-77.824h-124.928v-757.76h124.928v-77.824h-210.944z" />
<glyph unicode="&#x5c;" glyph-name="backslash" horiz-adv-x="410" d="M307.2-48.64l-286.72 839.68h81.92l286.72-839.68h-81.92z" />
<glyph unicode="&#x5d;" glyph-name="bracketright" horiz-adv-x="297" d="M45.056-126.464v77.824h124.928v757.76h-124.928v77.824h210.944v-913.408h-210.944z" />
<glyph unicode="&#x5e;" glyph-name="asciicircum" horiz-adv-x="494" d="M36.864 454.144l169.984 275.456h79.872l169.984-275.456h-80.896l-129.024 211.968-129.024-211.968h-80.896z" />
<glyph unicode="&#x5f;" glyph-name="underscore" horiz-adv-x="408" d="M15.36-74.24v71.68h376.832v-71.68h-376.832z" />
<glyph unicode="&#x60;" glyph-name="grave" d="M145.408 593.408l-104.448 136.192h120.832l57.344-136.192h-73.728z" />
<glyph unicode="&#x61;" glyph-name="a" horiz-adv-x="647" d="M296.96-1.536q-71.68 0-129.536 35.328t-91.136 95.744-33.28 136.192 35.328 136.192 93.696 95.744 126.976 35.328q66.56 0 114.688-25.088t75.776-62.976v73.728h77.824v-505.856h-77.824v87.040q-27.648-43.008-75.776-72.192t-116.736-29.184zM308.224 74.24q48.128 0 89.088 23.552t66.56 66.56 25.6 101.376-25.6 101.376-66.56 66.56-89.088 23.552q-49.152 0-90.624-23.552t-66.048-66.56-24.576-101.376 24.576-101.376 66.048-66.56 90.624-23.552z" />
<glyph unicode="&#x62;" glyph-name="b" horiz-adv-x="647" d="M350.208-1.536q-62.464 0-114.176 27.648t-78.336 69.632v-82.944h-77.824v716.8h83.968v-287.744q23.552 34.816 74.752 62.976t116.736 28.16q69.632 0 125.952-35.328t89.6-95.744 33.28-136.192-34.304-136.192-92.16-95.744-127.488-35.328zM338.944 74.24q50.176 0 91.136 23.552t65.536 66.56 24.576 101.376-24.576 101.376-65.536 66.56-91.136 23.552q-47.104 0-88.576-23.552t-67.072-66.56-25.6-101.376 25.6-101.376 67.072-66.56 88.576-23.552z" />
<glyph unicode="&#x63;" glyph-name="c" horiz-adv-x="585" d="M301.056-1.536q-73.728 0-132.096 34.816t-92.16 95.232-33.792 137.216 33.792 137.216 92.672 95.232 131.584 34.816q66.56 0 117.248-22.528t81.92-62.976 40.448-95.744h-83.968q-13.312 45.056-53.248 75.264t-102.4 30.208q-47.104 0-87.040-23.040t-63.488-66.048-23.552-102.4 24.064-102.4 64-66.048 86.016-23.040q63.488 0 101.376 29.184t54.272 76.288h83.968q-12.288-55.296-44.032-95.744t-80.896-62.976-114.688-22.528z" />
<glyph unicode="&#x64;" glyph-name="d" horiz-adv-x="647" d="M296.96-1.536q-71.68 0-129.536 35.328t-91.136 95.744-33.28 136.192q0 57.344 20.48 105.984t55.808 84.48 81.408 56.32 98.304 20.48q66.56 0 113.664-25.6t70.656-58.368v280.576h83.968v-716.8h-77.824v87.040q-27.648-43.008-75.776-72.192t-116.736-29.184zM308.224 74.24q48.128 0 89.088 23.552t66.56 66.56 25.6 101.376-25.6 101.376-66.56 66.56-89.088 23.552q-49.152 0-90.624-23.552t-66.048-66.56-24.576-101.376 24.576-101.376 66.048-66.56 90.624-23.552z" />
<glyph unicode="&#x65;" glyph-name="e" horiz-adv-x="591" d="M297.984-1.536q-74.752 0-132.608 34.304t-90.112 94.72-32.256 138.24 33.792 138.24 91.136 94.72 129.024 34.304q75.776 0 131.584-31.232t86.528-88.064 30.72-134.656v-26.624h-449.536v67.584h402.432l-32.768-17.408q-4.096 73.728-49.664 116.224t-120.32 42.496q-72.704 0-120.832-52.224t-48.128-145.408v-9.216q0-57.344 23.040-98.304t61.952-62.464 86.016-21.504q63.488 0 103.424 30.72t55.296 76.8h79.872q-22.528-78.848-83.968-130.048t-154.624-51.2z" />
<glyph unicode="&#x66;" glyph-name="f" horiz-adv-x="326" d="M92.16 12.8v564.224q0 48.128 16.896 81.92t49.664 52.224 79.872 18.432h57.344v-76.8h-44.032q-38.912 0-57.344-19.968t-18.432-58.88v-561.152h-83.968zM17.408 449.024v69.632h278.528v-69.632h-278.528z" />
<glyph unicode="&#x67;" glyph-name="g" horiz-adv-x="625" d="M302.080-206.336q-71.68 0-124.416 25.088t-81.408 67.072-31.744 92.16h83.968q5.12-47.104 43.52-77.824t108.032-30.72q73.728 0 117.248 38.4t43.52 113.152v93.184q-26.624-38.912-70.144-64t-109.056-25.088-119.808 32.768-86.528 90.112-32.256 131.072q0 55.296 19.456 101.888t53.248 80.896 77.824 52.736 93.184 18.432q60.416 0 109.056-25.088t71.168-65.024v75.776h77.824v-495.616q0-67.584-31.744-119.296t-86.528-80.896-124.416-29.184zM296.96 100.864q47.104 0 85.504 22.528t61.44 62.976 23.040 92.672q0 53.248-23.040 93.184t-61.44 62.464-85.504 22.528q-46.080 0-84.992-22.528t-61.952-62.464-23.040-93.184q0-52.224 23.040-92.672t61.952-62.976 84.992-22.528z" />
<glyph unicode="&#x68;" glyph-name="h" horiz-adv-x="583" d="M79.872 12.8v716.8h83.968v-278.528q17.408 30.72 59.904 56.32t101.888 25.6q81.92 0 130.048-54.272t48.128-142.336v-323.584h-83.968v313.344q0 63.488-36.864 98.304t-90.112 34.816-91.136-34.816-37.888-98.304v-313.344h-83.968z" />
<glyph unicode="&#x69;" glyph-name="i" horiz-adv-x="244" d="M79.872 12.8v505.856h83.968v-505.856h-83.968zM121.856 604.672q-25.6 0-44.032 18.432t-18.432 44.032q0 26.624 18.432 44.544t44.032 17.92q26.624 0 44.544-17.92t17.92-44.544q0-25.6-17.92-44.032t-44.544-18.432z" />
<glyph unicode="&#x6a;" glyph-name="j" horiz-adv-x="244" d="M-16.384-192v75.776h36.864q31.744 0 45.568 15.872t13.824 47.616v571.392h83.968v-577.536q0-62.464-32.768-97.792t-94.208-35.328h-53.248zM121.856 604.672q-25.6 0-44.032 18.432t-18.432 44.032q0 26.624 18.432 44.544t44.032 17.92q26.624 0 44.544-17.92t17.92-44.544q0-25.6-17.92-44.032t-44.544-18.432z" />
<glyph unicode="&#x6b;" glyph-name="k" horiz-adv-x="494" d="M79.872 12.8v716.8h83.968v-716.8h-83.968zM361.472 12.8l-209.92 263.168h100.352l209.92-263.168h-100.352zM151.552 275.968l199.68 242.688h101.376l-200.704-242.688h-100.352z" />
<glyph unicode="&#x6c;" glyph-name="l" horiz-adv-x="244" d="M79.872 12.8v716.8h83.968v-716.8h-83.968z" />
<glyph unicode="&#x6d;" glyph-name="m" horiz-adv-x="808" d="M79.872 12.8v505.856h78.848v-61.44q15.36 32.768 49.664 54.272t84.48 21.504q51.2 0 84.48-20.992t49.664-53.76q20.48 29.696 56.32 52.224t95.232 22.528q72.704 0 111.616-49.152t38.912-123.904v-347.136h-83.968v343.040q0 44.032-26.112 73.728t-73.216 29.696-73.216-29.696-26.112-73.728v-343.040h-83.968v343.040q0 44.032-25.6 73.728t-72.704 29.696-73.728-29.696-26.624-73.728v-343.040h-83.968z" />
<glyph unicode="&#x6e;" glyph-name="n" horiz-adv-x="570" d="M79.872 12.8v505.856h78.848v-70.656q17.408 32.768 57.856 58.88t101.888 26.112q82.944 0 128-52.224t45.056-133.12v-334.848h-83.968v315.392q0 62.464-36.864 96.768t-84.992 34.304q-47.104 0-84.48-34.304t-37.376-96.768v-315.392h-83.968z" />
<glyph unicode="&#x6f;" glyph-name="o" horiz-adv-x="621" d="M310.272-1.536q-76.8 0-137.216 35.328t-95.232 95.744-34.816 136.192 34.816 136.192 95.232 95.744 137.216 35.328q77.824 0 137.728-35.328t94.72-95.744 34.816-136.192-34.816-136.192-94.72-95.744-137.728-35.328zM310.272 74.24q50.176 0 91.648 23.040t66.56 66.048 25.088 102.4-25.088 102.4-66.56 66.048-91.648 23.040q-49.152 0-91.136-23.040t-67.072-66.048-25.088-102.4 25.088-102.4 67.072-66.048 91.136-23.040z" />
<glyph unicode="&#x70;" glyph-name="p" horiz-adv-x="647" d="M79.872-192v710.656h77.824v-86.016q26.624 41.984 77.312 71.168t115.2 29.184q72.704 0 130.048-35.328t90.624-95.744 33.28-136.192q0-56.32-20.48-105.472t-55.808-84.992-81.408-56.32-98.304-20.48q-68.608 0-114.176 27.648t-70.144 60.416v-278.528h-83.968zM338.944 74.24q50.176 0 91.136 23.552t65.536 66.56 24.576 101.376-24.576 101.376-65.536 66.56-91.136 23.552q-47.104 0-88.576-23.552t-67.072-66.56-25.6-101.376 25.6-101.376 67.072-66.56 88.576-23.552z" />
<glyph unicode="&#x71;" glyph-name="q" horiz-adv-x="647" d="M483.328-192v280.576q-25.6-36.864-71.168-63.488t-115.2-26.624q-68.608 0-126.464 35.328t-92.672 95.744-34.816 136.192 34.304 136.192 92.672 95.744 130.048 35.328q66.56 0 115.2-28.672t74.24-68.608v82.944h77.824v-710.656h-83.968zM308.224 74.24q48.128 0 89.088 23.552t66.56 66.56 25.6 101.376-25.6 101.376-66.56 66.56-89.088 23.552q-49.152 0-90.624-23.552t-66.048-66.56-24.576-101.376 24.576-101.376 66.048-66.56 90.624-23.552z" />
<glyph unicode="&#x72;" glyph-name="r" horiz-adv-x="384" d="M79.872 12.8v505.856h77.824v-71.68h6.144v-434.176h-83.968zM163.84 360.96l-6.144 86.016q8.192 37.888 33.28 54.784t59.904 16.896h93.184v-77.824h-101.376q-78.848 0-78.848-79.872z" />
<glyph unicode="&#x73;" glyph-name="s" horiz-adv-x="466" d="M235.52-1.536q-58.368 0-100.864 23.040t-65.024 63.488-22.528 91.648h83.968q0-44.032 27.648-74.24t76.8-30.208q45.056 0 73.216 23.040t28.16 57.856q0 32.768-19.968 50.688t-66.048 31.232l-74.752 21.504q-52.224 15.36-84.48 49.664t-32.256 86.528q0 44.032 24.064 75.264t63.488 48.128 86.528 16.896q51.2 0 89.088-19.456t59.392-53.248 21.504-75.776h-79.872q0 32.768-26.112 54.784t-64 22.016q-38.912 0-65.536-16.896t-26.624-47.616q0-28.672 19.968-46.080t64-30.72l74.752-22.528q52.224-15.36 86.528-47.616t34.304-89.6q0-47.104-24.576-83.456t-66.048-57.344-94.72-20.992z" />
<glyph unicode="&#x74;" glyph-name="t" horiz-adv-x="350" d="M226.304 12.8q-60.416 0-93.184 35.84t-32.768 97.28v501.76h83.968v-494.592q0-62.464 60.416-62.464h59.392v-77.824h-77.824zM25.6 449.024v69.632h278.528v-69.632h-278.528z" />
<glyph unicode="&#x75;" glyph-name="u" horiz-adv-x="570" d="M251.904-1.536q-52.224 0-91.136 24.576t-60.416 67.584-21.504 99.328v328.704h83.968v-315.392q0-62.464 35.328-96.768t86.528-34.304 86.528 34.304 35.328 96.768v315.392h83.968v-505.856h-78.848v70.656q-17.408-33.792-56.832-59.392t-102.912-25.6z" />
<glyph unicode="&#x76;" glyph-name="v" horiz-adv-x="494" d="M198.656 12.8l-178.176 505.856h89.088l118.784-357.376q5.12-14.336 9.728-29.184t8.704-33.28q5.12 18.432 9.728 33.28t8.704 29.184l118.784 357.376h89.088l-178.176-505.856h-96.256z" />
<glyph unicode="&#x77;" glyph-name="w" horiz-adv-x="709" d="M155.648 12.8l-133.12 505.856h89.088l77.824-349.184q3.072-15.36 7.168-30.208t8.192-38.4q4.096 23.552 7.168 38.4t7.168 30.208l92.16 349.184h86.016l92.16-349.184q4.096-15.36 7.168-30.208t7.168-38.4q5.12 23.552 8.704 38.4t6.656 30.208l77.824 349.184h89.088l-133.12-505.856h-96.256l-90.112 338.944q-3.072 12.288-6.144 26.112t-6.144 33.28q-3.072-19.456-6.144-33.28t-6.144-26.112l-90.112-338.944h-96.256z" />
<glyph unicode="&#x78;" glyph-name="x" horiz-adv-x="483" d="M13.312 12.8l192.512 280.576 27.648 25.6 136.192 199.68h94.208l-179.2-258.048-31.744-34.816-142.336-212.992h-97.28zM375.808 12.8l-151.552 216.064-21.504 31.744-182.272 258.048h98.304l134.144-195.584 22.528-33.792 194.56-276.48h-94.208z" />
<glyph unicode="&#x79;" glyph-name="y" horiz-adv-x="513" d="M49.152-192v77.824h59.392q24.576 0 37.376 8.704t22.016 31.232l34.816 87.040-190.464 505.856h93.184l124.928-335.872q5.12-15.36 9.216-31.232t8.192-37.376v0 0l155.648 404.48h92.16l-246.784-619.52q-17.408-44.032-47.616-67.584t-81.408-23.552h-70.656z" />
<glyph unicode="&#x7a;" glyph-name="z" horiz-adv-x="492" d="M45.056 12.8v69.632l293.888 366.592h-285.696v69.632h379.904v-69.632l-292.864-366.592h306.176v-69.632h-401.408z" />
<glyph unicode="&#x7b;" glyph-name="braceleft" horiz-adv-x="379" d="M263.168-126.464q-68.608 0-104.448 35.84t-35.84 104.448v210.944q0 33.792-16.896 50.176t-49.664 16.384h-21.504v77.824h21.504q32.768 0 49.664 16.384t16.896 50.176v210.944q0 68.608 35.84 104.448t104.448 35.84h70.656v-77.824h-69.632q-55.296 0-55.296-55.296v-231.424q0-46.080-15.36-64.512t-41.984-27.648q26.624-9.216 41.984-27.648t15.36-64.512v-231.424q0-55.296 55.296-55.296h69.632v-77.824h-70.656z" />
<glyph unicode="&#x7c;" glyph-name="bar" horiz-adv-x="246" d="M79.872-126.464v913.408h86.016v-913.408h-86.016z" />
<glyph unicode="&#x7d;" glyph-name="braceright" horiz-adv-x="379" d="M45.056-126.464v77.824h69.632q55.296 0 55.296 55.296v231.424q0 46.080 15.872 64.512t41.472 27.648q-25.6 9.216-41.472 27.648t-15.872 64.512v231.424q0 55.296-55.296 55.296h-69.632v77.824h70.656q68.608 0 104.448-35.84t35.84-104.448v-210.944q0-33.792 17.408-50.176t49.152-16.384h21.504v-77.824h-21.504q-31.744 0-49.152-16.384t-17.408-50.176v-210.944q0-68.608-35.84-104.448t-104.448-35.84h-70.656z" />
<glyph unicode="&#x7e;" glyph-name="asciitilde" horiz-adv-x="494" d="M336.896 307.712q-34.816 0-65.536 13.824t-57.344 27.648-50.176 13.824q-22.528 0-34.816-14.336t-12.288-36.864h-73.728q0 63.488 33.28 93.184t80.384 29.696q35.84 0 66.048-13.824t57.344-27.648 49.664-13.824q23.552 0 35.328 14.336t11.776 36.864h73.728q0-62.464-33.28-92.672t-80.384-30.208z" />
<glyph unicode="&#xa1;" glyph-name="exclamdown" horiz-adv-x="252" d="M80.896-192l14.336 521.216h61.44l14.336-521.216h-90.112zM125.952 413.184q-25.6 0-42.496 17.408t-16.896 43.008q0 24.576 16.896 41.984t42.496 17.408 42.496-17.408 16.896-41.984q0-25.6-16.896-43.008t-42.496-17.408z" />
<glyph unicode="&#xa2;" glyph-name="cent" horiz-adv-x="585" d="M301.056 103.936q-73.728 0-132.096 34.816t-92.16 95.232-33.792 137.216 33.792 137.216 92.672 95.232 131.584 34.816q66.56 0 117.248-22.016t81.92-62.976 40.448-96.256h-83.968q-13.312 45.056-53.248 75.264t-102.4 30.208q-47.104 0-87.040-23.040t-63.488-66.048-23.552-102.4 24.064-102.4 64-66.048 86.016-23.040q63.488 0 101.376 29.184t54.272 76.288h83.968q-12.288-55.296-44.032-95.744t-80.896-62.976-114.688-22.528zM265.216 12.8v716.8h75.776v-716.8h-75.776z" />
<glyph unicode="&#xa3;" glyph-name="sterling" horiz-adv-x="585" d="M30.72 12.8v79.872h15.36q37.888 0 56.832 21.504t18.944 63.488v347.136q0 66.56 27.648 115.712t75.776 76.288 108.544 27.136q61.44 0 107.008-25.6t71.68-69.12 27.136-98.816h-79.872q-4.096 49.152-37.376 81.408t-88.576 32.256q-53.248 0-88.576-32.256t-35.328-100.864v-343.040q0-34.816-10.752-56.32t-33.28-38.912h377.856v-79.872h-513.024zM32.768 321.024v73.728h372.736v-73.728h-372.736z" />
<glyph unicode="&#xa4;" glyph-name="currency" horiz-adv-x="674" d="M336.896 122.368q-68.608 0-123.392 33.28t-87.040 90.112-32.256 125.44q0 69.632 32.256 125.952t87.040 89.6 123.392 33.28 123.392-33.28 87.040-89.6 32.256-125.952q0-68.608-32.256-125.44t-87.040-90.112-123.392-33.28zM93.184 71.168l-56.32 56.32 145.408 145.408 56.32-56.32zM182.272 469.504l-145.408 145.408 56.32 56.32 145.408-145.408zM336.896 202.24q69.632 0 114.176 47.104t44.544 121.856q0 75.776-44.544 122.368t-114.176 46.592q-68.608 0-113.664-46.592t-45.056-122.368q0-74.752 45.056-121.856t113.664-47.104zM580.608 71.168l-145.408 145.408 56.32 56.32 145.408-145.408zM491.52 469.504l-56.32 56.32 145.408 145.408 56.32-56.32z" />
<glyph unicode="&#xa5;" glyph-name="yen" horiz-adv-x="573" d="M242.688 12.8v292.864l-227.328 423.936h100.352l145.408-284.672q8.192-15.36 13.312-27.648t12.288-32.768q7.168 20.48 12.8 32.768t12.8 27.648l145.408 284.672h100.352l-227.328-423.936v-292.864h-88.064zM59.392 162.304v73.728h454.656v-73.728h-454.656zM59.392 305.664v73.728h454.656v-73.728h-454.656z" />
<glyph unicode="&#xa6;" glyph-name="brokenbar" horiz-adv-x="246" d="M79.872 387.584v399.36h86.016v-399.36h-86.016zM79.872-126.464v399.36h86.016v-399.36h-86.016z" />
<glyph unicode="&#xa7;" glyph-name="section" horiz-adv-x="550" d="M392.192 167.424l-67.584 35.84q41.984 10.24 68.096 36.352t26.112 57.856q0 38.912-29.696 59.904t-76.8 31.232l-80.896 17.408q-45.056 10.24-81.92 32.256t-58.88 55.808-22.016 78.848q0 51.2 28.672 89.6t76.8 59.904 106.496 21.504q65.536 0 113.152-22.528t73.216-62.464 25.6-92.16h-87.040q0 45.056-36.352 72.192t-88.576 27.136q-56.32 0-90.112-24.064t-33.792-62.976q0-39.936 26.624-60.928t88.064-35.328l82.944-18.432q60.416-13.312 101.888-52.224t41.472-103.424q0-38.912-15.36-66.048t-39.424-45.568-50.688-29.696zM272.384-124.416q-65.536 0-113.152 22.528t-73.216 62.464-25.6 92.16h87.040q0-44.032 36.352-71.68t88.576-27.648q56.32 0 90.112 24.064t33.792 62.976q0 39.936-26.624 61.44t-88.064 34.816l-82.944 18.432q-60.416 14.336-101.888 52.736t-41.472 102.912q0 38.912 15.36 66.56t39.424 45.568 50.688 29.184l67.584-35.84q-41.984-10.24-68.096-35.84t-26.112-58.368q0-37.888 29.696-59.392t76.8-31.744l80.896-17.408q45.056-9.216 81.92-31.744t58.88-56.32 22.016-78.848q0-51.2-28.672-89.6t-76.288-59.904-107.008-21.504z" />
<glyph unicode="&#xa8;" glyph-name="dieresis" d="M82.944 610.816q-22.528 0-39.424 16.384t-16.896 39.936q0 24.576 16.896 40.448t39.424 15.872q24.576 0 40.448-15.872t15.872-40.448q0-23.552-15.872-39.936t-40.448-16.384zM246.784 610.816q-23.552 0-39.936 16.384t-16.384 39.936q0 24.576 16.384 40.448t39.936 15.872 39.936-15.872 16.384-40.448q0-23.552-16.384-39.936t-39.936-16.384z" />
<glyph unicode="&#xa9;" glyph-name="copyright" horiz-adv-x="817" d="M408.576-1.536q-76.8 0-143.36 27.136t-116.736 77.312-78.848 118.272-28.672 150.016 28.672 150.016 78.848 118.272 116.736 77.312 143.36 27.136 143.36-27.136 116.736-77.312 78.848-118.272 28.672-150.016-28.672-150.016-78.848-118.272-116.736-77.312-143.36-27.136zM409.6 165.376q-58.368 0-103.424 27.136t-70.144 73.728-25.088 104.96q0 59.392 26.112 105.472t71.168 73.216 101.376 27.136q78.848 0 126.464-39.424t57.856-103.936h-71.68q-10.24 34.816-38.912 55.296t-73.728 20.48q-49.152 0-87.040-34.304t-37.888-103.936q0-46.080 17.92-76.8t46.592-46.080 60.416-15.36q47.104 0 73.216 19.456t39.424 56.32h71.68q-13.312-64.512-60.928-103.936t-123.392-39.424zM408.576 72.192q80.896 0 146.944 37.888t105.472 105.472 39.424 155.648-39.424 155.648-105.472 105.472-146.944 37.888-146.944-37.888-105.472-105.472-39.424-155.648 39.424-155.648 105.472-105.472 146.944-37.888z" />
<glyph unicode="&#xaa;" glyph-name="ordfeminine" horiz-adv-x="446" d="M201.728 364.032q-51.2 0-90.624 25.6t-61.952 68.096-22.528 92.672q0 51.2 23.552 93.184t63.488 67.584 90.112 25.6q45.056 0 76.288-14.848t50.688-38.4v46.080h61.44v-358.4h-61.44v59.392q-19.456-28.672-50.688-47.616t-78.336-18.944zM211.968 425.472q31.744 0 58.368 15.872t43.52 44.032 16.896 65.024q0 57.344-35.84 91.136t-82.944 33.792-82.432-33.792-35.328-91.136q0-56.32 35.328-90.624t82.432-34.304z" />
<glyph unicode="&#xab;" glyph-name="guillemotleft" horiz-adv-x="502" d="M373.76 97.792l-145.408 207.872v8.192l145.408 207.872h93.184l-144.384-211.968 144.384-211.968h-93.184zM185.344 97.792l-145.408 207.872v8.192l145.408 207.872h93.184l-144.384-211.968 144.384-211.968h-93.184z" />
<glyph unicode="&#xac;" glyph-name="logicalnot" horiz-adv-x="494" d="M386.048 160.256v175.104h-350.208v71.68h421.888v-246.784h-71.68z" />
<glyph unicode="&#xad;" glyph-name="uni00AD" horiz-adv-x="295" d="M15.36 320v71.68h264.192v-71.68h-264.192z" />
<glyph unicode="&#xae;" glyph-name="registered" horiz-adv-x="371" d="M185.344 437.76q-40.96 0-74.752 19.968t-53.76 53.76-19.968 74.752 19.968 74.752 53.76 53.76 74.752 19.968 74.752-19.968 53.76-53.76 19.968-74.752-19.968-74.752-53.76-53.76-74.752-19.968zM220.16 509.44l-35.84 67.584 28.672 2.048 35.84-69.632h-28.672zM185.344 466.432q33.792 0 60.928 15.872t43.008 43.52 15.872 60.416q0 33.792-15.872 60.928t-43.008 43.008-60.928 15.872q-32.768 0-60.416-15.872t-43.52-43.008-15.872-60.928q0-32.768 15.872-60.416t43.52-43.52 60.416-15.872zM136.192 509.44v153.6h56.32q23.552 0 36.864-12.288t13.312-33.792q0-18.432-10.752-30.72t-31.232-14.336l-10.24-1.024h-27.648v-61.44h-26.624zM162.816 594.432h28.672q11.264 0 17.92 6.144t6.656 16.384q0 11.264-6.656 16.896t-17.92 5.632h-28.672v-45.056z" />
<glyph unicode="&#xaf;" glyph-name="macron" d="M51.2 631.296v67.584h247.808v-67.584h-247.808z" />
<glyph unicode="&#xb0;" glyph-name="degree" horiz-adv-x="360" d="M180.224 457.216q-41.984 0-74.752 18.944t-51.712 51.2-18.944 73.216 18.944 73.216 51.712 51.2 74.752 18.944 74.752-18.944 51.712-51.2 18.944-73.216-18.944-73.216-51.712-51.2-74.752-18.944zM180.224 514.56q35.84 0 59.904 24.064t24.064 61.952q0 38.912-24.064 62.464t-59.904 23.552-59.904-23.552-24.064-62.464q0-37.888 24.064-61.952t59.904-24.064z" />
<glyph unicode="&#xb1;" glyph-name="plusminus" horiz-adv-x="494" d="M35.84 376.32v71.68h421.888v-71.68h-421.888zM210.944 201.216v421.888h71.68v-421.888h-71.68zM35.84 12.8v71.68h421.888v-71.68h-421.888z" />
<glyph unicode="&#xb2;" glyph-name="uni00B2" horiz-adv-x="289" d="M23.552 371.2v48.128l124.928 128q20.48 20.48 30.208 38.4t9.728 39.424q0 23.552-13.824 37.376t-35.328 13.824q-24.576 0-37.888-14.336t-15.36-37.888h-62.464q2.048 49.152 32.768 80.896t83.968 31.744 83.456-30.208 30.208-78.336q0-33.792-14.848-60.928t-44.544-57.856l-75.776-78.848h139.264v-59.392h-234.496z" />
<glyph unicode="&#xb3;" glyph-name="uni00B3" horiz-adv-x="297" d="M144.384 364.032q-60.416 0-92.16 35.328t-31.744 82.432h64.512q2.048-25.6 17.408-41.472t41.984-15.872q27.648 0 43.52 14.336t15.872 39.936q0 24.576-16.896 38.4t-43.52 13.824h-19.456v52.224h19.456q23.552 0 38.4 12.8t14.848 34.304q0 20.48-13.312 33.792t-39.936 13.312q-22.528 0-37.888-13.824t-17.408-34.304h-62.464q2.048 44.032 33.28 75.776t84.48 31.744q55.296 0 86.016-28.16t30.72-71.168q0-25.6-13.824-46.080t-32.256-31.744q23.552-8.192 39.936-29.184t16.384-53.76-15.872-58.368-44.032-39.936-66.048-14.336z" />
<glyph unicode="&#xb4;" glyph-name="acute" d="M40.96 593.408l57.344 136.192h120.832l-104.448-136.192h-73.728z" />
<glyph unicode="&#xb5;" glyph-name="uni00B5" horiz-adv-x="623" d="M78.848-192v710.656h83.968v-315.392q0-62.464 35.328-96.768t86.528-34.304 86.528 34.304 35.328 96.768v315.392h83.968v-365.568q0-62.464 60.416-62.464h25.6v-77.824h-44.032q-44.032 0-73.216 19.456t-42.496 54.272q-25.6-38.912-62.464-63.488t-94.208-24.576q-29.696 0-54.784 9.216t-42.496 23.552v-223.232h-83.968z" />
<glyph unicode="&#xb6;" glyph-name="paragraph" horiz-adv-x="644" d="M304.128-110.080v405.504h-30.72q-63.488 0-115.2 26.624t-81.408 75.264-29.696 115.2 29.696 115.2 81.408 75.264 115.2 26.624h118.784v-839.68h-88.064zM465.92-110.080v839.68h88.064v-839.68h-88.064z" />
<glyph unicode="&#xb7;" glyph-name="periodcentered" horiz-adv-x="254" d="M126.976 311.808q-25.6 0-42.496 17.408t-16.896 41.984q0 25.6 16.896 42.496t42.496 16.896 42.496-16.896 16.896-42.496q0-24.576-16.896-41.984t-42.496-17.408z" />
<glyph unicode="&#xb8;" glyph-name="cedilla" d="M91.136-220.672q-21.504 0-39.936 3.072t-30.72 7.168v53.248q11.264-4.096 26.112-7.168t32.256-3.072q29.696 0 43.52 10.752t13.824 30.208q0 18.432-13.824 29.184t-36.352 10.752h-65.536v20.48l35.84 104.448h58.368l-29.696-95.232-31.744 4.096q17.408 5.12 32.768 8.192t31.744 3.072q35.84 0 59.392-23.552t23.552-62.464q0-51.2-33.792-72.192t-75.776-20.992z" />
<glyph unicode="&#xb9;" glyph-name="uni00B9" horiz-adv-x="196" d="M91.136 371.2v296.96h-68.608v61.44h134.144v-358.4h-65.536z" />
<glyph unicode="&#xba;" glyph-name="ordmasculine" horiz-adv-x="425" d="M212.992 364.032q-55.296 0-97.28 25.088t-65.536 67.584-23.552 93.696q0 52.224 23.552 94.208t65.536 67.072 97.28 25.088 96.768-25.088 65.024-67.072 23.552-94.208q0-51.2-23.552-93.696t-65.024-67.584-96.768-25.088zM212.992 425.472q48.128 0 82.944 34.304t34.816 90.624q0 57.344-34.816 91.136t-82.944 33.792q-49.152 0-83.968-33.792t-34.816-91.136q0-56.32 34.816-90.624t83.968-34.304z" />
<glyph unicode="&#xbb;" glyph-name="guillemotright" horiz-adv-x="502" d="M34.816 97.792l144.384 211.968-144.384 211.968h93.184l145.408-207.872v-8.192l-145.408-207.872h-93.184zM223.232 97.792l144.384 211.968-144.384 211.968h93.184l145.408-207.872v-8.192l-145.408-207.872h-93.184z" />
<glyph unicode="&#xbc;" glyph-name="onequarter" horiz-adv-x="636" d="M91.136 371.2v296.96h-68.608v61.44h134.144v-358.4h-65.536zM57.344 67.072l-43.008 43.008 565.248 565.248 43.008-43.008zM514.048 12.8v88.064h-158.72v39.936l152.576 230.4h71.68v-220.16h39.936v-50.176h-39.936v-88.064h-65.536zM428.032 151.040h86.016v101.376q0 8.192 0.512 17.408t1.536 16.384z" />
<glyph unicode="&#xbd;" glyph-name="onehalf" horiz-adv-x="689" d="M91.136 371.2v296.96h-68.608v61.44h134.144v-358.4h-65.536zM57.344 67.072l-43.008 43.008 565.248 565.248 43.008-43.008zM423.936 12.8v48.128l124.928 128q20.48 20.48 30.208 38.4t9.728 39.424q0 23.552-13.824 37.376t-35.328 13.824q-24.576 0-37.888-14.336t-15.36-37.888h-62.464q2.048 49.152 32.768 80.896t83.968 31.744 83.456-30.208 30.208-78.336q0-33.792-14.848-60.928t-44.544-57.856l-75.776-78.848h139.264v-59.392h-234.496z" />
<glyph unicode="&#xbe;" glyph-name="threequarters" horiz-adv-x="707" d="M144.384 364.032q-60.416 0-92.16 35.328t-31.744 82.432h64.512q2.048-25.6 17.408-41.472t41.984-15.872q27.648 0 43.52 14.336t15.872 39.936q0 24.576-16.896 38.4t-43.52 13.824h-19.456v52.224h19.456q23.552 0 38.4 12.8t14.848 34.304q0 20.48-13.312 33.792t-39.936 13.312q-22.528 0-37.888-13.824t-17.408-34.304h-62.464q2.048 44.032 33.28 75.776t84.48 31.744q55.296 0 86.016-28.16t30.72-71.168q0-25.6-13.824-46.080t-32.256-31.744q23.552-8.192 39.936-29.184t16.384-53.76-15.872-58.368-44.032-39.936-66.048-14.336zM128 67.072l-43.008 43.008 565.248 565.248 43.008-43.008zM584.704 12.8v88.064h-158.72v39.936l152.576 230.4h71.68v-220.16h39.936v-50.176h-39.936v-88.064h-65.536zM498.688 151.040h86.016v101.376q0 8.192 0.512 17.408t1.536 16.384z" />
<glyph unicode="&#xbf;" glyph-name="questiondown" horiz-adv-x="502" d="M250.88-206.336q-62.464 0-109.056 24.576t-72.704 67.072-26.112 95.744q0 57.344 24.064 98.816t72.192 80.384q26.624 21.504 44.032 39.936t26.112 41.472 8.704 56.832v30.72h73.728v-29.696q0-48.128-9.728-78.848t-31.744-54.784-57.856-52.736q-37.888-29.696-54.784-59.392t-16.896-64.512q0-51.2 35.328-84.48t94.72-33.28q57.344 0 97.28 35.328t40.96 94.72h79.872q0-53.248-26.624-100.864t-75.776-77.312-115.712-29.696zM250.88 413.184q-25.6 0-42.496 17.408t-16.896 43.008q0 24.576 16.896 41.984t42.496 17.408 42.496-17.408 16.896-41.984q0-25.6-16.896-43.008t-42.496-17.408z" />
<glyph unicode="&#xc0;" glyph-name="Agrave" horiz-adv-x="670" d="M9.216 12.8l275.456 716.8h100.352l275.456-716.8h-91.136l-216.064 570.368q-5.12 14.336-9.216 25.088t-9.216 24.064q-4.096-13.312-8.704-24.064t-9.728-25.088l-216.064-570.368h-91.136zM138.24 199.168v79.872h393.216v-79.872h-393.216zM299.008 804.352l-104.448 136.192h120.832l57.344-136.192h-73.728z" />
<glyph unicode="&#xc1;" glyph-name="Aacute" horiz-adv-x="670" d="M9.216 12.8l275.456 716.8h100.352l275.456-716.8h-91.136l-216.064 570.368q-5.12 14.336-9.216 25.088t-9.216 24.064q-4.096-13.312-8.704-24.064t-9.728-25.088l-216.064-570.368h-91.136zM138.24 199.168v79.872h393.216v-79.872h-393.216zM299.008 804.352l57.344 136.192h120.832l-104.448-136.192h-73.728z" />
<glyph unicode="&#xc2;" glyph-name="Acircumflex" horiz-adv-x="670" d="M9.216 12.8l275.456 716.8h100.352l275.456-716.8h-91.136l-216.064 570.368q-5.12 14.336-9.216 25.088t-9.216 24.064q-4.096-13.312-8.704-24.064t-9.728-25.088l-216.064-570.368h-91.136zM138.24 199.168v79.872h393.216v-79.872h-393.216zM198.656 804.352l101.376 136.192h71.68l101.376-136.192h-71.68l-65.536 70.656-65.536-70.656h-71.68z" />
<glyph unicode="&#xc3;" glyph-name="Atilde" horiz-adv-x="670" d="M9.216 12.8l275.456 716.8h100.352l275.456-716.8h-91.136l-216.064 570.368q-5.12 14.336-9.216 25.088t-9.216 24.064q-4.096-13.312-8.704-24.064t-9.728-25.088l-216.064-570.368h-91.136zM138.24 199.168v79.872h393.216v-79.872h-393.216zM413.696 808.448q-26.624 0-46.592 9.216t-35.84 20.48-30.208 20.48-30.72 9.216q-21.504 0-34.304-14.848t-12.8-36.352h-73.728q0 52.224 28.16 88.064t80.384 35.84q26.624 0 46.592-9.216t35.84-20.48 30.208-20.48 30.72-9.216q21.504 0 34.304 14.848t12.8 36.352h73.728q0-52.224-28.16-88.064t-80.384-35.84z" />
<glyph unicode="&#xc4;" glyph-name="Adieresis" horiz-adv-x="670" d="M9.216 12.8l275.456 716.8h100.352l275.456-716.8h-91.136l-216.064 570.368q-5.12 14.336-9.216 25.088t-9.216 24.064q-4.096-13.312-8.704-24.064t-9.728-25.088l-216.064-570.368h-91.136zM138.24 199.168v79.872h393.216v-79.872h-393.216zM253.952 821.76q-22.528 0-39.424 16.384t-16.896 39.936q0 24.576 16.896 40.448t39.424 15.872q24.576 0 40.448-15.872t15.872-40.448q0-23.552-15.872-39.936t-40.448-16.384zM417.792 821.76q-23.552 0-39.936 16.384t-16.384 39.936q0 24.576 16.384 40.448t39.936 15.872 39.936-15.872 16.384-40.448q0-23.552-16.384-39.936t-39.936-16.384z" />
<glyph unicode="&#xc5;" glyph-name="Aring" horiz-adv-x="670" d="M9.216 12.8l275.456 716.8h100.352l275.456-716.8h-91.136l-216.064 570.368q-5.12 14.336-9.216 25.088t-9.216 24.064q-4.096-13.312-8.704-24.064t-9.728-25.088l-216.064-570.368h-91.136zM138.24 199.168v79.872h393.216v-79.872h-393.216zM335.872 797.184q-33.792 0-61.44 16.896t-44.544 44.544-16.896 61.44 16.896 61.952 44.544 44.544 61.44 16.384 61.44-16.384 44.544-44.544 16.896-61.952-16.896-61.44-44.544-44.544-61.44-16.896zM335.872 848.384q29.696 0 50.688 20.992t20.992 50.688-20.992 50.688-50.688 20.992-50.688-20.992-20.992-50.688 20.992-50.688 50.688-20.992z" />
<glyph unicode="&#xc6;" glyph-name="AE" horiz-adv-x="926" d="M9.216 12.8l387.072 716.8h56.32v-79.872h-4.096l-342.016-636.928h-97.28zM185.344 192v79.872h330.752v-79.872h-330.752zM448.512 12.8v716.8h420.864v-79.872h-332.8v-216.064h280.576v-79.872h-280.576v-261.12h335.872v-79.872h-423.936z" />
<glyph unicode="&#xc7;" glyph-name="Ccedilla" horiz-adv-x="762" d="M393.216-1.536q-67.584 0-130.048 24.576t-112.128 72.704-78.848 117.248-29.184 158.208 29.184 158.208 78.848 117.248 112.64 72.704 129.536 24.576q83.968 0 153.088-32.256t115.2-91.136 59.392-140.8h-88.064q-13.312 58.368-48.64 99.84t-84.992 62.976-105.984 21.504q-66.56 0-126.464-33.28t-97.792-98.304-37.888-161.28q0-95.232 37.888-160.768t97.792-98.816 126.464-33.28q87.040 0 153.6 48.64t86.016 136.704h88.064q-13.312-81.92-60.416-141.312t-116.224-91.648-151.040-32.256zM401.408-220.672q-21.504 0-39.936 3.072t-30.72 7.168v53.248q11.264-4.096 26.112-7.168t32.256-3.072q29.696 0 43.52 10.752t13.824 30.208q0 18.432-13.824 29.184t-36.352 10.752h-65.536v20.48l35.84 104.448h58.368l-29.696-95.232-31.744 4.096q17.408 5.12 32.768 8.192t31.744 3.072q35.84 0 59.392-23.552t23.552-62.464q0-51.2-33.792-72.192t-75.776-20.992z" />
<glyph unicode="&#xc8;" glyph-name="Egrave" horiz-adv-x="567" d="M90.112 12.8v716.8h420.864v-79.872h-332.8v-216.064h280.576v-79.872h-280.576v-261.12h335.872v-79.872h-423.936zM265.216 804.352l-104.448 136.192h120.832l57.344-136.192h-73.728z" />
<glyph unicode="&#xc9;" glyph-name="Eacute" horiz-adv-x="567" d="M90.112 12.8v716.8h420.864v-79.872h-332.8v-216.064h280.576v-79.872h-280.576v-261.12h335.872v-79.872h-423.936zM265.216 804.352l57.344 136.192h120.832l-104.448-136.192h-73.728z" />
<glyph unicode="&#xca;" glyph-name="Ecircumflex" horiz-adv-x="567" d="M90.112 12.8v716.8h420.864v-79.872h-332.8v-216.064h280.576v-79.872h-280.576v-261.12h335.872v-79.872h-423.936zM164.864 804.352l101.376 136.192h71.68l101.376-136.192h-71.68l-65.536 70.656-65.536-70.656h-71.68z" />
<glyph unicode="&#xcb;" glyph-name="Edieresis" horiz-adv-x="567" d="M90.112 12.8v716.8h420.864v-79.872h-332.8v-216.064h280.576v-79.872h-280.576v-261.12h335.872v-79.872h-423.936zM220.16 821.76q-22.528 0-39.424 16.384t-16.896 39.936q0 24.576 16.896 40.448t39.424 15.872q24.576 0 40.448-15.872t15.872-40.448q0-23.552-15.872-39.936t-40.448-16.384zM384 821.76q-23.552 0-39.936 16.384t-16.384 39.936q0 24.576 16.384 40.448t39.936 15.872 39.936-15.872 16.384-40.448q0-23.552-16.384-39.936t-39.936-16.384z" />
<glyph unicode="&#xcc;" glyph-name="Igrave" horiz-adv-x="268" d="M90.112 12.8v716.8h88.064v-716.8h-88.064zM97.28 804.352l-104.448 136.192h120.832l57.344-136.192h-73.728z" />
<glyph unicode="&#xcd;" glyph-name="Iacute" horiz-adv-x="268" d="M90.112 12.8v716.8h88.064v-716.8h-88.064zM97.28 804.352l57.344 136.192h120.832l-104.448-136.192h-73.728z" />
<glyph unicode="&#xce;" glyph-name="Icircumflex" horiz-adv-x="268" d="M90.112 12.8v716.8h88.064v-716.8h-88.064zM-3.072 804.352l101.376 136.192h71.68l101.376-136.192h-71.68l-65.536 70.656-65.536-70.656h-71.68z" />
<glyph unicode="&#xcf;" glyph-name="Idieresis" horiz-adv-x="268" d="M90.112 12.8v716.8h88.064v-716.8h-88.064zM52.224 821.76q-22.528 0-39.424 16.384t-16.896 39.936q0 24.576 16.896 40.448t39.424 15.872q24.576 0 40.448-15.872t15.872-40.448q0-23.552-15.872-39.936t-40.448-16.384zM216.064 821.76q-23.552 0-39.936 16.384t-16.384 39.936q0 24.576 16.384 40.448t39.936 15.872 39.936-15.872 16.384-40.448q0-23.552-16.384-39.936t-39.936-16.384z" />
<glyph unicode="&#xd0;" glyph-name="Eth" horiz-adv-x="680" d="M4.096 334.336v73.728h362.496v-73.728h-362.496zM90.112 12.8v716.8h194.56q101.376 0 180.736-41.984t125.44-122.368 46.080-194.048-46.080-194.048-125.44-122.368-180.736-41.984h-194.56zM178.176 92.672h100.352q77.824 0 138.752 31.744t96.256 93.696 35.328 153.088-35.328 153.088-96.256 93.696-138.752 31.744h-100.352v-557.056z" />
<glyph unicode="&#xd1;" glyph-name="Ntilde" horiz-adv-x="748" d="M90.112 12.8v716.8h86.016l398.336-582.656q-1.024 26.624-1.024 48.128v534.528h83.968v-716.8h-84.992l-400.384 582.656q2.048-26.624 2.048-48.128v-534.528h-83.968zM451.584 808.448q-26.624 0-46.592 9.216t-35.84 20.48-30.208 20.48-30.72 9.216q-21.504 0-34.304-14.848t-12.8-36.352h-73.728q0 52.224 28.16 88.064t80.384 35.84q26.624 0 46.592-9.216t35.84-20.48 30.208-20.48 30.72-9.216q21.504 0 34.304 14.848t12.8 36.352h73.728q0-52.224-28.16-88.064t-80.384-35.84z" />
<glyph unicode="&#xd2;" glyph-name="Ograve" horiz-adv-x="803" d="M401.408-1.536q-69.632 0-134.144 24.576t-115.2 72.704-79.872 117.248-29.184 158.208 29.184 158.208 79.872 117.248 115.2 72.704 134.144 24.576 134.144-24.576 115.2-72.704 79.872-117.248 29.184-158.208-29.184-158.208-79.872-117.248-115.2-72.704-134.144-24.576zM401.408 78.336q51.2 0 99.328 18.944t87.040 55.808 61.44 91.648 22.528 126.464-22.528 126.464-61.44 91.648-87.040 55.808-99.328 18.944-99.328-18.944-87.040-55.808-61.44-91.648-22.528-126.464 22.528-126.464 61.44-91.648 87.040-55.808 99.328-18.944zM364.544 804.352l-104.448 136.192h120.832l57.344-136.192h-73.728z" />
<glyph unicode="&#xd3;" glyph-name="Oacute" horiz-adv-x="803" d="M401.408-1.536q-69.632 0-134.144 24.576t-115.2 72.704-79.872 117.248-29.184 158.208 29.184 158.208 79.872 117.248 115.2 72.704 134.144 24.576 134.144-24.576 115.2-72.704 79.872-117.248 29.184-158.208-29.184-158.208-79.872-117.248-115.2-72.704-134.144-24.576zM401.408 78.336q51.2 0 99.328 18.944t87.040 55.808 61.44 91.648 22.528 126.464-22.528 126.464-61.44 91.648-87.040 55.808-99.328 18.944-99.328-18.944-87.040-55.808-61.44-91.648-22.528-126.464 22.528-126.464 61.44-91.648 87.040-55.808 99.328-18.944zM364.544 804.352l57.344 136.192h120.832l-104.448-136.192h-73.728z" />
<glyph unicode="&#xd4;" glyph-name="Ocircumflex" horiz-adv-x="803" d="M401.408-1.536q-69.632 0-134.144 24.576t-115.2 72.704-79.872 117.248-29.184 158.208 29.184 158.208 79.872 117.248 115.2 72.704 134.144 24.576 134.144-24.576 115.2-72.704 79.872-117.248 29.184-158.208-29.184-158.208-79.872-117.248-115.2-72.704-134.144-24.576zM401.408 78.336q51.2 0 99.328 18.944t87.040 55.808 61.44 91.648 22.528 126.464-22.528 126.464-61.44 91.648-87.040 55.808-99.328 18.944-99.328-18.944-87.040-55.808-61.44-91.648-22.528-126.464 22.528-126.464 61.44-91.648 87.040-55.808 99.328-18.944zM264.192 804.352l101.376 136.192h71.68l101.376-136.192h-71.68l-65.536 70.656-65.536-70.656h-71.68z" />
<glyph unicode="&#xd5;" glyph-name="Otilde" horiz-adv-x="803" d="M401.408-1.536q-69.632 0-134.144 24.576t-115.2 72.704-79.872 117.248-29.184 158.208 29.184 158.208 79.872 117.248 115.2 72.704 134.144 24.576 134.144-24.576 115.2-72.704 79.872-117.248 29.184-158.208-29.184-158.208-79.872-117.248-115.2-72.704-134.144-24.576zM401.408 78.336q51.2 0 99.328 18.944t87.040 55.808 61.44 91.648 22.528 126.464-22.528 126.464-61.44 91.648-87.040 55.808-99.328 18.944-99.328-18.944-87.040-55.808-61.44-91.648-22.528-126.464 22.528-126.464 61.44-91.648 87.040-55.808 99.328-18.944zM479.232 808.448q-26.624 0-46.592 9.216t-35.84 20.48-30.208 20.48-30.72 9.216q-21.504 0-34.304-14.848t-12.8-36.352h-73.728q0 52.224 28.16 88.064t80.384 35.84q26.624 0 46.592-9.216t35.84-20.48 30.208-20.48 30.72-9.216q21.504 0 34.304 14.848t12.8 36.352h73.728q0-52.224-28.16-88.064t-80.384-35.84z" />
<glyph unicode="&#xd6;" glyph-name="Odieresis" horiz-adv-x="803" d="M401.408-1.536q-69.632 0-134.144 24.576t-115.2 72.704-79.872 117.248-29.184 158.208 29.184 158.208 79.872 117.248 115.2 72.704 134.144 24.576 134.144-24.576 115.2-72.704 79.872-117.248 29.184-158.208-29.184-158.208-79.872-117.248-115.2-72.704-134.144-24.576zM401.408 78.336q51.2 0 99.328 18.944t87.040 55.808 61.44 91.648 22.528 126.464-22.528 126.464-61.44 91.648-87.040 55.808-99.328 18.944-99.328-18.944-87.040-55.808-61.44-91.648-22.528-126.464 22.528-126.464 61.44-91.648 87.040-55.808 99.328-18.944zM319.488 821.76q-22.528 0-39.424 16.384t-16.896 39.936q0 24.576 16.896 40.448t39.424 15.872q24.576 0 40.448-15.872t15.872-40.448q0-23.552-15.872-39.936t-40.448-16.384zM483.328 821.76q-23.552 0-39.936 16.384t-16.384 39.936q0 24.576 16.384 40.448t39.936 15.872 39.936-15.872 16.384-40.448q0-23.552-16.384-39.936t-39.936-16.384z" />
<glyph unicode="&#xd7;" glyph-name="multiply" horiz-adv-x="494" d="M101.376 174.592l-51.2 51.2 145.408 145.408-145.408 145.408 51.2 51.2 145.408-145.408 145.408 145.408 51.2-51.2-145.408-145.408 145.408-145.408-51.2-51.2-145.408 145.408z" />
<glyph unicode="&#xd8;" glyph-name="Oslash" horiz-adv-x="803" d="M116.736-48.64l481.28 839.68h88.064l-481.28-839.68h-88.064zM401.408-1.536q-69.632 0-134.144 24.576t-115.2 72.704-79.872 117.248-29.184 158.208 29.184 158.208 79.872 117.248 115.2 72.704 134.144 24.576 134.144-24.576 115.2-72.704 79.872-117.248 29.184-158.208-29.184-158.208-79.872-117.248-115.2-72.704-134.144-24.576zM401.408 78.336q51.2 0 99.328 18.944t87.040 55.808 61.44 91.648 22.528 126.464-22.528 126.464-61.44 91.648-87.040 55.808-99.328 18.944-99.328-18.944-87.040-55.808-61.44-91.648-22.528-126.464 22.528-126.464 61.44-91.648 87.040-55.808 99.328-18.944z" />
<glyph unicode="&#xd9;" glyph-name="Ugrave" horiz-adv-x="672" d="M335.872-1.536q-69.632 0-127.488 29.696t-92.16 89.088-34.304 146.432v465.92h86.016v-477.184q0-52.224 22.016-91.648t60.416-60.928 85.504-21.504q48.128 0 86.016 21.504t59.904 60.928 22.016 91.648v477.184h86.016v-465.92q0-87.040-34.304-146.432t-92.16-89.088-127.488-29.696zM299.008 804.352l-104.448 136.192h120.832l57.344-136.192h-73.728z" />
<glyph unicode="&#xda;" glyph-name="Uacute" horiz-adv-x="672" d="M335.872-1.536q-69.632 0-127.488 29.696t-92.16 89.088-34.304 146.432v465.92h86.016v-477.184q0-52.224 22.016-91.648t60.416-60.928 85.504-21.504q48.128 0 86.016 21.504t59.904 60.928 22.016 91.648v477.184h86.016v-465.92q0-87.040-34.304-146.432t-92.16-89.088-127.488-29.696zM299.008 804.352l57.344 136.192h120.832l-104.448-136.192h-73.728z" />
<glyph unicode="&#xdb;" glyph-name="Ucircumflex" horiz-adv-x="672" d="M335.872-1.536q-69.632 0-127.488 29.696t-92.16 89.088-34.304 146.432v465.92h86.016v-477.184q0-52.224 22.016-91.648t60.416-60.928 85.504-21.504q48.128 0 86.016 21.504t59.904 60.928 22.016 91.648v477.184h86.016v-465.92q0-87.040-34.304-146.432t-92.16-89.088-127.488-29.696zM198.656 804.352l101.376 136.192h71.68l101.376-136.192h-71.68l-65.536 70.656-65.536-70.656h-71.68z" />
<glyph unicode="&#xdc;" glyph-name="Udieresis" horiz-adv-x="672" d="M335.872-1.536q-69.632 0-127.488 29.696t-92.16 89.088-34.304 146.432v465.92h86.016v-477.184q0-52.224 22.016-91.648t60.416-60.928 85.504-21.504q48.128 0 86.016 21.504t59.904 60.928 22.016 91.648v477.184h86.016v-465.92q0-87.040-34.304-146.432t-92.16-89.088-127.488-29.696zM253.952 821.76q-22.528 0-39.424 16.384t-16.896 39.936q0 24.576 16.896 40.448t39.424 15.872q24.576 0 40.448-15.872t15.872-40.448q0-23.552-15.872-39.936t-40.448-16.384zM417.792 821.76q-23.552 0-39.936 16.384t-16.384 39.936q0 24.576 16.384 40.448t39.936 15.872 39.936-15.872 16.384-40.448q0-23.552-16.384-39.936t-39.936-16.384z" />
<glyph unicode="&#xdd;" glyph-name="Yacute" horiz-adv-x="573" d="M242.688 12.8v297.984l-223.232 418.816h100.352l141.312-275.456q8.192-15.36 13.312-27.648t12.288-32.768q7.168 20.48 12.8 32.768t12.8 27.648l141.312 275.456h100.352l-223.232-418.816v-297.984h-88.064zM249.856 804.352l57.344 136.192h120.832l-104.448-136.192h-73.728z" />
<glyph unicode="&#xde;" glyph-name="Thorn" horiz-adv-x="605" d="M90.112 12.8v716.8h88.064v-141.312h153.6q64.512 0 115.712-26.624t80.896-75.264 29.696-115.2-29.696-115.2-80.896-75.264-115.712-26.624h-153.6v-141.312h-88.064zM178.176 231.936h148.48q62.464 0 102.912 36.864t40.448 102.4-40.448 102.4-102.912 36.864h-148.48v-278.528z" />
<glyph unicode="&#xdf;" glyph-name="germandbls" horiz-adv-x="578" d="M79.872 12.8v543.744q0 59.392 27.136 101.376t71.68 64 95.744 22.016q60.416 0 103.424-22.016t66.048-61.952 23.040-93.184q0-48.128-27.136-86.528t-60.928-56.832q38.912-12.288 71.168-36.864t51.712-63.488 19.456-95.232q0-63.488-28.672-112.128t-80.384-75.776-121.344-27.136h-63.488v77.824h63.488q62.464 0 104.448 37.888t41.984 101.376-41.984 101.376-104.448 37.888h-63.488v76.8h36.864q52.224 0 86.528 32.256t34.304 82.432q0 49.152-31.232 78.336t-79.36 29.184q-46.080 0-78.336-29.696t-32.256-81.92v-543.744h-83.968z" />
<glyph unicode="&#xe0;" glyph-name="agrave" horiz-adv-x="647" d="M296.96-1.536q-71.68 0-129.536 35.328t-91.136 95.744-33.28 136.192 35.328 136.192 93.696 95.744 126.976 35.328q66.56 0 114.688-25.088t75.776-62.976v73.728h77.824v-505.856h-77.824v87.040q-27.648-43.008-75.776-72.192t-116.736-29.184zM308.224 74.24q48.128 0 89.088 23.552t66.56 66.56 25.6 101.376-25.6 101.376-66.56 66.56-89.088 23.552q-49.152 0-90.624-23.552t-66.048-66.56-24.576-101.376 24.576-101.376 66.048-66.56 90.624-23.552zM286.72 593.408l-104.448 136.192h120.832l57.344-136.192h-73.728z" />
<glyph unicode="&#xe1;" glyph-name="aacute" horiz-adv-x="647" d="M296.96-1.536q-71.68 0-129.536 35.328t-91.136 95.744-33.28 136.192 35.328 136.192 93.696 95.744 126.976 35.328q66.56 0 114.688-25.088t75.776-62.976v73.728h77.824v-505.856h-77.824v87.040q-27.648-43.008-75.776-72.192t-116.736-29.184zM308.224 74.24q48.128 0 89.088 23.552t66.56 66.56 25.6 101.376-25.6 101.376-66.56 66.56-89.088 23.552q-49.152 0-90.624-23.552t-66.048-66.56-24.576-101.376 24.576-101.376 66.048-66.56 90.624-23.552zM286.72 593.408l57.344 136.192h120.832l-104.448-136.192h-73.728z" />
<glyph unicode="&#xe2;" glyph-name="acircumflex" horiz-adv-x="647" d="M296.96-1.536q-71.68 0-129.536 35.328t-91.136 95.744-33.28 136.192 35.328 136.192 93.696 95.744 126.976 35.328q66.56 0 114.688-25.088t75.776-62.976v73.728h77.824v-505.856h-77.824v87.040q-27.648-43.008-75.776-72.192t-116.736-29.184zM308.224 74.24q48.128 0 89.088 23.552t66.56 66.56 25.6 101.376-25.6 101.376-66.56 66.56-89.088 23.552q-49.152 0-90.624-23.552t-66.048-66.56-24.576-101.376 24.576-101.376 66.048-66.56 90.624-23.552zM186.368 593.408l101.376 136.192h71.68l101.376-136.192h-71.68l-65.536 70.656-65.536-70.656h-71.68z" />
<glyph unicode="&#xe3;" glyph-name="atilde" horiz-adv-x="647" d="M296.96-1.536q-71.68 0-129.536 35.328t-91.136 95.744-33.28 136.192 35.328 136.192 93.696 95.744 126.976 35.328q66.56 0 114.688-25.088t75.776-62.976v73.728h77.824v-505.856h-77.824v87.040q-27.648-43.008-75.776-72.192t-116.736-29.184zM308.224 74.24q48.128 0 89.088 23.552t66.56 66.56 25.6 101.376-25.6 101.376-66.56 66.56-89.088 23.552q-49.152 0-90.624-23.552t-66.048-66.56-24.576-101.376 24.576-101.376 66.048-66.56 90.624-23.552zM401.408 597.504q-26.624 0-46.592 9.216t-35.84 20.48-30.208 20.48-30.72 9.216q-21.504 0-34.304-14.848t-12.8-36.352h-73.728q0 52.224 28.16 88.064t80.384 35.84q26.624 0 46.592-9.216t35.84-20.48 30.208-20.48 30.72-9.216q21.504 0 34.304 14.848t12.8 36.352h73.728q0-52.224-28.16-88.064t-80.384-35.84z" />
<glyph unicode="&#xe4;" glyph-name="adieresis" horiz-adv-x="647" d="M296.96-1.536q-71.68 0-129.536 35.328t-91.136 95.744-33.28 136.192 35.328 136.192 93.696 95.744 126.976 35.328q66.56 0 114.688-25.088t75.776-62.976v73.728h77.824v-505.856h-77.824v87.040q-27.648-43.008-75.776-72.192t-116.736-29.184zM308.224 74.24q48.128 0 89.088 23.552t66.56 66.56 25.6 101.376-25.6 101.376-66.56 66.56-89.088 23.552q-49.152 0-90.624-23.552t-66.048-66.56-24.576-101.376 24.576-101.376 66.048-66.56 90.624-23.552zM241.664 610.816q-22.528 0-39.424 16.384t-16.896 39.936q0 24.576 16.896 40.448t39.424 15.872q24.576 0 40.448-15.872t15.872-40.448q0-23.552-15.872-39.936t-40.448-16.384zM405.504 610.816q-23.552 0-39.936 16.384t-16.384 39.936q0 24.576 16.384 40.448t39.936 15.872 39.936-15.872 16.384-40.448q0-23.552-16.384-39.936t-39.936-16.384z" />
<glyph unicode="&#xe5;" glyph-name="aring" horiz-adv-x="647" d="M296.96-1.536q-71.68 0-129.536 35.328t-91.136 95.744-33.28 136.192 35.328 136.192 93.696 95.744 126.976 35.328q66.56 0 114.688-25.088t75.776-62.976v73.728h77.824v-505.856h-77.824v87.040q-27.648-43.008-75.776-72.192t-116.736-29.184zM308.224 74.24q48.128 0 89.088 23.552t66.56 66.56 25.6 101.376-25.6 101.376-66.56 66.56-89.088 23.552q-49.152 0-90.624-23.552t-66.048-66.56-24.576-101.376 24.576-101.376 66.048-66.56 90.624-23.552zM323.584 586.24q-33.792 0-61.44 16.896t-44.544 44.544-16.896 61.44 16.896 61.952 44.544 44.544 61.44 16.384 61.44-16.384 44.544-44.544 16.896-61.952-16.896-61.44-44.544-44.544-61.44-16.896zM323.584 637.44q29.696 0 50.688 20.992t20.992 50.688-20.992 50.688-50.688 20.992-50.688-20.992-20.992-50.688 20.992-50.688 50.688-20.992z" />
<glyph unicode="&#xe6;" glyph-name="ae" horiz-adv-x="1031" d="M296.96-1.536q-71.68 0-129.536 35.328t-91.136 95.744-33.28 136.192 35.328 136.192 93.696 95.744 126.976 35.328q66.56 0 114.688-25.088t75.776-62.976v73.728h77.824v-73.728q25.6 38.912 74.24 63.488t113.152 24.576q66.56 0 118.784-31.232t82.432-88.064 30.208-134.656v-26.624h-418.816q1.024-56.32 24.064-96.768t61.44-61.952 85.504-21.504q63.488 0 103.424 30.72t55.296 76.8h79.872q-22.528-78.848-83.968-130.048t-154.624-51.2q-56.32 0-101.376 23.040t-69.632 57.856v-66.56h-77.824v87.040q-27.648-43.008-75.776-72.192t-116.736-29.184zM308.224 74.24q48.128 0 89.088 23.552t66.56 66.56 25.6 101.376-25.6 101.376-66.56 66.56-89.088 23.552q-49.152 0-90.624-23.552t-66.048-66.56-24.576-101.376 24.576-101.376 66.048-66.56 90.624-23.552zM572.416 320h331.776q-8.192 66.56-53.248 103.936t-114.688 37.376q-61.44 0-105.472-37.376t-58.368-103.936z" />
<glyph unicode="&#xe7;" glyph-name="ccedilla" horiz-adv-x="585" d="M301.056-1.536q-73.728 0-132.096 34.816t-92.16 95.232-33.792 137.216 33.792 137.216 92.672 95.232 131.584 34.816q66.56 0 117.248-22.528t81.92-62.976 40.448-95.744h-83.968q-13.312 45.056-53.248 75.264t-102.4 30.208q-47.104 0-87.040-23.040t-63.488-66.048-23.552-102.4 24.064-102.4 64-66.048 86.016-23.040q63.488 0 101.376 29.184t54.272 76.288h83.968q-12.288-55.296-44.032-95.744t-80.896-62.976-114.688-22.528zM309.248-220.672q-21.504 0-39.936 3.072t-30.72 7.168v53.248q11.264-4.096 26.112-7.168t32.256-3.072q29.696 0 43.52 10.752t13.824 30.208q0 18.432-13.824 29.184t-36.352 10.752h-65.536v20.48l35.84 104.448h58.368l-29.696-95.232-31.744 4.096q17.408 5.12 32.768 8.192t31.744 3.072q35.84 0 59.392-23.552t23.552-62.464q0-51.2-33.792-72.192t-75.776-20.992z" />
<glyph unicode="&#xe8;" glyph-name="egrave" horiz-adv-x="591" d="M297.984-1.536q-74.752 0-132.608 34.304t-90.112 94.72-32.256 138.24 33.792 138.24 91.136 94.72 129.024 34.304q75.776 0 131.584-31.232t86.528-88.064 30.72-134.656v-26.624h-449.536v67.584h402.432l-32.768-17.408q-4.096 73.728-49.664 116.224t-120.32 42.496q-72.704 0-120.832-52.224t-48.128-145.408v-9.216q0-57.344 23.040-98.304t61.952-62.464 86.016-21.504q63.488 0 103.424 30.72t55.296 76.8h79.872q-22.528-78.848-83.968-130.048t-154.624-51.2zM259.072 593.408l-104.448 136.192h120.832l57.344-136.192h-73.728z" />
<glyph unicode="&#xe9;" glyph-name="eacute" horiz-adv-x="591" d="M297.984-1.536q-74.752 0-132.608 34.304t-90.112 94.72-32.256 138.24 33.792 138.24 91.136 94.72 129.024 34.304q75.776 0 131.584-31.232t86.528-88.064 30.72-134.656v-26.624h-449.536v67.584h402.432l-32.768-17.408q-4.096 73.728-49.664 116.224t-120.32 42.496q-72.704 0-120.832-52.224t-48.128-145.408v-9.216q0-57.344 23.040-98.304t61.952-62.464 86.016-21.504q63.488 0 103.424 30.72t55.296 76.8h79.872q-22.528-78.848-83.968-130.048t-154.624-51.2zM259.072 593.408l57.344 136.192h120.832l-104.448-136.192h-73.728z" />
<glyph unicode="&#xea;" glyph-name="ecircumflex" horiz-adv-x="591" d="M297.984-1.536q-74.752 0-132.608 34.304t-90.112 94.72-32.256 138.24 33.792 138.24 91.136 94.72 129.024 34.304q75.776 0 131.584-31.232t86.528-88.064 30.72-134.656v-26.624h-449.536v67.584h402.432l-32.768-17.408q-4.096 73.728-49.664 116.224t-120.32 42.496q-72.704 0-120.832-52.224t-48.128-145.408v-9.216q0-57.344 23.040-98.304t61.952-62.464 86.016-21.504q63.488 0 103.424 30.72t55.296 76.8h79.872q-22.528-78.848-83.968-130.048t-154.624-51.2zM158.72 593.408l101.376 136.192h71.68l101.376-136.192h-71.68l-65.536 70.656-65.536-70.656h-71.68z" />
<glyph unicode="&#xeb;" glyph-name="edieresis" horiz-adv-x="591" d="M297.984-1.536q-74.752 0-132.608 34.304t-90.112 94.72-32.256 138.24 33.792 138.24 91.136 94.72 129.024 34.304q75.776 0 131.584-31.232t86.528-88.064 30.72-134.656v-26.624h-449.536v67.584h402.432l-32.768-17.408q-4.096 73.728-49.664 116.224t-120.32 42.496q-72.704 0-120.832-52.224t-48.128-145.408v-9.216q0-57.344 23.040-98.304t61.952-62.464 86.016-21.504q63.488 0 103.424 30.72t55.296 76.8h79.872q-22.528-78.848-83.968-130.048t-154.624-51.2zM214.016 610.816q-22.528 0-39.424 16.384t-16.896 39.936q0 24.576 16.896 40.448t39.424 15.872q24.576 0 40.448-15.872t15.872-40.448q0-23.552-15.872-39.936t-40.448-16.384zM377.856 610.816q-23.552 0-39.936 16.384t-16.384 39.936q0 24.576 16.384 40.448t39.936 15.872 39.936-15.872 16.384-40.448q0-23.552-16.384-39.936t-39.936-16.384z" />
<glyph unicode="&#xec;" glyph-name="igrave" horiz-adv-x="244" d="M79.872 12.8v505.856h83.968v-505.856h-83.968zM84.992 593.408l-104.448 136.192h120.832l57.344-136.192h-73.728z" />
<glyph unicode="&#xed;" glyph-name="iacute" horiz-adv-x="244" d="M79.872 12.8v505.856h83.968v-505.856h-83.968zM84.992 593.408l57.344 136.192h120.832l-104.448-136.192h-73.728z" />
<glyph unicode="&#xee;" glyph-name="icircumflex" horiz-adv-x="244" d="M79.872 12.8v505.856h83.968v-505.856h-83.968zM-15.36 593.408l101.376 136.192h71.68l101.376-136.192h-71.68l-65.536 70.656-65.536-70.656h-71.68z" />
<glyph unicode="&#xef;" glyph-name="idieresis" horiz-adv-x="244" d="M79.872 12.8v505.856h83.968v-505.856h-83.968zM39.936 610.816q-22.528 0-39.424 16.384t-16.896 39.936q0 24.576 16.896 40.448t39.424 15.872q24.576 0 40.448-15.872t15.872-40.448q0-23.552-15.872-39.936t-40.448-16.384zM203.776 610.816q-23.552 0-39.936 16.384t-16.384 39.936q0 24.576 16.384 40.448t39.936 15.872 39.936-15.872 16.384-40.448q0-23.552-16.384-39.936t-39.936-16.384z" />
<glyph unicode="&#xf0;" glyph-name="eth" horiz-adv-x="584" d="M290.816-1.536q-69.632 0-125.952 31.744t-89.088 87.040-32.768 125.952q0 69.632 33.792 122.88t87.040 83.456 111.616 30.208q69.632 0 118.784-30.208t70.656-72.192l-4.096-22.528q-18.432 76.8-60.928 139.776t-102.4 110.080-131.584 73.728l36.864 65.536q70.656-25.6 132.096-69.632t107.52-103.936 72.192-133.12 26.112-156.16q0-88.064-30.208-151.552t-86.016-97.28-133.632-33.792zM290.816 74.24q46.080 0 83.456 20.48t59.904 57.344 22.528 87.040-22.528 87.040-59.904 57.344-83.456 20.48q-45.056 0-82.432-20.48t-59.392-57.344-22.016-87.040 22.016-87.040 59.392-57.344 82.432-20.48zM204.8 507.392l-31.744 64.512 290.816 141.312 31.744-64.512z" />
<glyph unicode="&#xf1;" glyph-name="ntilde" horiz-adv-x="570" d="M79.872 12.8v505.856h78.848v-70.656q17.408 32.768 57.856 58.88t101.888 26.112q82.944 0 128-52.224t45.056-133.12v-334.848h-83.968v315.392q0 62.464-36.864 96.768t-84.992 34.304q-47.104 0-84.48-34.304t-37.376-96.768v-315.392h-83.968zM363.52 597.504q-26.624 0-46.592 9.216t-35.84 20.48-30.208 20.48-30.72 9.216q-21.504 0-34.304-14.848t-12.8-36.352h-73.728q0 52.224 28.16 88.064t80.384 35.84q26.624 0 46.592-9.216t35.84-20.48 30.208-20.48 30.72-9.216q21.504 0 34.304 14.848t12.8 36.352h73.728q0-52.224-28.16-88.064t-80.384-35.84z" />
<glyph unicode="&#xf2;" glyph-name="ograve" horiz-adv-x="621" d="M310.272-1.536q-76.8 0-137.216 35.328t-95.232 95.744-34.816 136.192 34.816 136.192 95.232 95.744 137.216 35.328q77.824 0 137.728-35.328t94.72-95.744 34.816-136.192-34.816-136.192-94.72-95.744-137.728-35.328zM310.272 74.24q50.176 0 91.648 23.040t66.56 66.048 25.088 102.4-25.088 102.4-66.56 66.048-91.648 23.040q-49.152 0-91.136-23.040t-67.072-66.048-25.088-102.4 25.088-102.4 67.072-66.048 91.136-23.040zM273.408 593.408l-104.448 136.192h120.832l57.344-136.192h-73.728z" />
<glyph unicode="&#xf3;" glyph-name="oacute" horiz-adv-x="621" d="M310.272-1.536q-76.8 0-137.216 35.328t-95.232 95.744-34.816 136.192 34.816 136.192 95.232 95.744 137.216 35.328q77.824 0 137.728-35.328t94.72-95.744 34.816-136.192-34.816-136.192-94.72-95.744-137.728-35.328zM310.272 74.24q50.176 0 91.648 23.040t66.56 66.048 25.088 102.4-25.088 102.4-66.56 66.048-91.648 23.040q-49.152 0-91.136-23.040t-67.072-66.048-25.088-102.4 25.088-102.4 67.072-66.048 91.136-23.040zM273.408 593.408l57.344 136.192h120.832l-104.448-136.192h-73.728z" />
<glyph unicode="&#xf4;" glyph-name="ocircumflex" horiz-adv-x="621" d="M310.272-1.536q-76.8 0-137.216 35.328t-95.232 95.744-34.816 136.192 34.816 136.192 95.232 95.744 137.216 35.328q77.824 0 137.728-35.328t94.72-95.744 34.816-136.192-34.816-136.192-94.72-95.744-137.728-35.328zM310.272 74.24q50.176 0 91.648 23.040t66.56 66.048 25.088 102.4-25.088 102.4-66.56 66.048-91.648 23.040q-49.152 0-91.136-23.040t-67.072-66.048-25.088-102.4 25.088-102.4 67.072-66.048 91.136-23.040zM173.056 593.408l101.376 136.192h71.68l101.376-136.192h-71.68l-65.536 70.656-65.536-70.656h-71.68z" />
<glyph unicode="&#xf5;" glyph-name="otilde" horiz-adv-x="621" d="M310.272-1.536q-76.8 0-137.216 35.328t-95.232 95.744-34.816 136.192 34.816 136.192 95.232 95.744 137.216 35.328q77.824 0 137.728-35.328t94.72-95.744 34.816-136.192-34.816-136.192-94.72-95.744-137.728-35.328zM310.272 74.24q50.176 0 91.648 23.040t66.56 66.048 25.088 102.4-25.088 102.4-66.56 66.048-91.648 23.040q-49.152 0-91.136-23.040t-67.072-66.048-25.088-102.4 25.088-102.4 67.072-66.048 91.136-23.040zM388.096 597.504q-26.624 0-46.592 9.216t-35.84 20.48-30.208 20.48-30.72 9.216q-21.504 0-34.304-14.848t-12.8-36.352h-73.728q0 52.224 28.16 88.064t80.384 35.84q26.624 0 46.592-9.216t35.84-20.48 30.208-20.48 30.72-9.216q21.504 0 34.304 14.848t12.8 36.352h73.728q0-52.224-28.16-88.064t-80.384-35.84z" />
<glyph unicode="&#xf6;" glyph-name="odieresis" horiz-adv-x="621" d="M310.272-1.536q-76.8 0-137.216 35.328t-95.232 95.744-34.816 136.192 34.816 136.192 95.232 95.744 137.216 35.328q77.824 0 137.728-35.328t94.72-95.744 34.816-136.192-34.816-136.192-94.72-95.744-137.728-35.328zM310.272 74.24q50.176 0 91.648 23.040t66.56 66.048 25.088 102.4-25.088 102.4-66.56 66.048-91.648 23.040q-49.152 0-91.136-23.040t-67.072-66.048-25.088-102.4 25.088-102.4 67.072-66.048 91.136-23.040zM228.352 610.816q-22.528 0-39.424 16.384t-16.896 39.936q0 24.576 16.896 40.448t39.424 15.872q24.576 0 40.448-15.872t15.872-40.448q0-23.552-15.872-39.936t-40.448-16.384zM392.192 610.816q-23.552 0-39.936 16.384t-16.384 39.936q0 24.576 16.384 40.448t39.936 15.872 39.936-15.872 16.384-40.448q0-23.552-16.384-39.936t-39.936-16.384z" />
<glyph unicode="&#xf7;" glyph-name="divide" horiz-adv-x="494" d="M246.784 469.504q-25.6 0-42.496 17.408t-16.896 41.984q0 25.6 16.896 42.496t42.496 16.896 42.496-16.896 16.896-42.496q0-24.576-16.896-41.984t-42.496-17.408zM246.784 154.112q-25.6 0-42.496 17.408t-16.896 41.984q0 25.6 16.896 42.496t42.496 16.896 42.496-16.896 16.896-42.496q0-24.576-16.896-41.984t-42.496-17.408zM35.84 335.36v71.68h421.888v-71.68h-421.888z" />
<glyph unicode="&#xf8;" glyph-name="oslash" horiz-adv-x="621" d="M74.752-42.496l387.072 616.448h83.968l-387.072-616.448h-83.968zM310.272-1.536q-76.8 0-137.216 35.328t-95.232 95.744-34.816 136.192 34.816 136.192 95.232 95.744 137.216 35.328q77.824 0 137.728-35.328t94.72-95.744 34.816-136.192-34.816-136.192-94.72-95.744-137.728-35.328zM310.272 74.24q50.176 0 91.648 23.040t66.56 66.048 25.088 102.4-25.088 102.4-66.56 66.048-91.648 23.040q-49.152 0-91.136-23.040t-67.072-66.048-25.088-102.4 25.088-102.4 67.072-66.048 91.136-23.040z" />
<glyph unicode="&#xf9;" glyph-name="ugrave" horiz-adv-x="570" d="M251.904-1.536q-52.224 0-91.136 24.576t-60.416 67.584-21.504 99.328v328.704h83.968v-315.392q0-62.464 35.328-96.768t86.528-34.304 86.528 34.304 35.328 96.768v315.392h83.968v-505.856h-78.848v70.656q-17.408-33.792-56.832-59.392t-102.912-25.6zM247.808 593.408l-104.448 136.192h120.832l57.344-136.192h-73.728z" />
<glyph unicode="&#xfa;" glyph-name="uacute" horiz-adv-x="570" d="M251.904-1.536q-52.224 0-91.136 24.576t-60.416 67.584-21.504 99.328v328.704h83.968v-315.392q0-62.464 35.328-96.768t86.528-34.304 86.528 34.304 35.328 96.768v315.392h83.968v-505.856h-78.848v70.656q-17.408-33.792-56.832-59.392t-102.912-25.6zM247.808 593.408l57.344 136.192h120.832l-104.448-136.192h-73.728z" />
<glyph unicode="&#xfb;" glyph-name="ucircumflex" horiz-adv-x="570" d="M251.904-1.536q-52.224 0-91.136 24.576t-60.416 67.584-21.504 99.328v328.704h83.968v-315.392q0-62.464 35.328-96.768t86.528-34.304 86.528 34.304 35.328 96.768v315.392h83.968v-505.856h-78.848v70.656q-17.408-33.792-56.832-59.392t-102.912-25.6zM147.456 593.408l101.376 136.192h71.68l101.376-136.192h-71.68l-65.536 70.656-65.536-70.656h-71.68z" />
<glyph unicode="&#xfc;" glyph-name="udieresis" horiz-adv-x="570" d="M251.904-1.536q-52.224 0-91.136 24.576t-60.416 67.584-21.504 99.328v328.704h83.968v-315.392q0-62.464 35.328-96.768t86.528-34.304 86.528 34.304 35.328 96.768v315.392h83.968v-505.856h-78.848v70.656q-17.408-33.792-56.832-59.392t-102.912-25.6zM202.752 610.816q-22.528 0-39.424 16.384t-16.896 39.936q0 24.576 16.896 40.448t39.424 15.872q24.576 0 40.448-15.872t15.872-40.448q0-23.552-15.872-39.936t-40.448-16.384zM366.592 610.816q-23.552 0-39.936 16.384t-16.384 39.936q0 24.576 16.384 40.448t39.936 15.872 39.936-15.872 16.384-40.448q0-23.552-16.384-39.936t-39.936-16.384z" />
<glyph unicode="&#xfd;" glyph-name="yacute" horiz-adv-x="513" d="M49.152-192v77.824h59.392q24.576 0 37.376 8.704t22.016 31.232l34.816 87.040-190.464 505.856h93.184l124.928-335.872q5.12-15.36 9.216-31.232t8.192-37.376v0 0l155.648 404.48h92.16l-246.784-619.52q-17.408-44.032-47.616-67.584t-81.408-23.552h-70.656zM218.112 593.408l57.344 136.192h120.832l-104.448-136.192h-73.728z" />
<glyph unicode="&#xfe;" glyph-name="thorn" horiz-adv-x="647" d="M79.872-192v921.6h83.968v-289.792q24.576 38.912 74.752 66.048t111.616 27.136q72.704 0 130.048-35.328t90.624-95.744 33.28-136.192q0-56.32-20.48-105.472t-55.808-84.992-81.408-56.32-98.304-20.48q-68.608 0-114.176 27.648t-70.144 60.416v-278.528h-83.968zM338.944 74.24q50.176 0 91.136 23.552t65.536 66.56 24.576 101.376-24.576 101.376-65.536 66.56-91.136 23.552q-47.104 0-88.576-23.552t-67.072-66.56-25.6-101.376 25.6-101.376 67.072-66.56 88.576-23.552z" />
<glyph unicode="&#xff;" glyph-name="ydieresis" horiz-adv-x="513" d="M49.152-192v77.824h59.392q24.576 0 37.376 8.704t22.016 31.232l34.816 87.040-190.464 505.856h93.184l124.928-335.872q5.12-15.36 9.216-31.232t8.192-37.376v0 0l155.648 404.48h92.16l-246.784-619.52q-17.408-44.032-47.616-67.584t-81.408-23.552h-70.656zM173.056 610.816q-22.528 0-39.424 16.384t-16.896 39.936q0 24.576 16.896 40.448t39.424 15.872q24.576 0 40.448-15.872t15.872-40.448q0-23.552-15.872-39.936t-40.448-16.384zM336.896 610.816q-23.552 0-39.936 16.384t-16.384 39.936q0 24.576 16.384 40.448t39.936 15.872 39.936-15.872 16.384-40.448q0-23.552-16.384-39.936t-39.936-16.384z" />
<glyph unicode="&#x100;" glyph-name="Amacron" horiz-adv-x="670" d="M9.216 12.8l275.456 716.8h100.352l275.456-716.8h-91.136l-216.064 570.368q-5.12 14.336-9.216 25.088t-9.216 24.064q-4.096-13.312-8.704-24.064t-9.728-25.088l-216.064-570.368h-91.136zM138.24 199.168v79.872h393.216v-79.872h-393.216zM211.968 842.24v67.584h247.808v-67.584h-247.808z" />
<glyph unicode="&#x101;" glyph-name="amacron" horiz-adv-x="647" d="M296.96-1.536q-71.68 0-129.536 35.328t-91.136 95.744-33.28 136.192 35.328 136.192 93.696 95.744 126.976 35.328q66.56 0 114.688-25.088t75.776-62.976v73.728h77.824v-505.856h-77.824v87.040q-27.648-43.008-75.776-72.192t-116.736-29.184zM308.224 74.24q48.128 0 89.088 23.552t66.56 66.56 25.6 101.376-25.6 101.376-66.56 66.56-89.088 23.552q-49.152 0-90.624-23.552t-66.048-66.56-24.576-101.376 24.576-101.376 66.048-66.56 90.624-23.552zM199.68 631.296v67.584h247.808v-67.584h-247.808z" />
<glyph unicode="&#x102;" glyph-name="Abreve" horiz-adv-x="670" d="M9.216 12.8l275.456 716.8h100.352l275.456-716.8h-91.136l-216.064 570.368q-5.12 14.336-9.216 25.088t-9.216 24.064q-4.096-13.312-8.704-24.064t-9.728-25.088l-216.064-570.368h-91.136zM138.24 199.168v79.872h393.216v-79.872h-393.216zM335.872 811.52q-38.912 0-68.096 17.408t-45.056 47.104-15.872 64.512h59.392q0-32.768 18.944-53.248t50.688-20.48 50.688 20.48 18.944 53.248h59.392q0-34.816-15.872-64.512t-45.056-47.104-68.096-17.408z" />
<glyph unicode="&#x103;" glyph-name="abreve" horiz-adv-x="647" d="M296.96-1.536q-71.68 0-129.536 35.328t-91.136 95.744-33.28 136.192 35.328 136.192 93.696 95.744 126.976 35.328q66.56 0 114.688-25.088t75.776-62.976v73.728h77.824v-505.856h-77.824v87.040q-27.648-43.008-75.776-72.192t-116.736-29.184zM308.224 74.24q48.128 0 89.088 23.552t66.56 66.56 25.6 101.376-25.6 101.376-66.56 66.56-89.088 23.552q-49.152 0-90.624-23.552t-66.048-66.56-24.576-101.376 24.576-101.376 66.048-66.56 90.624-23.552zM323.584 600.576q-38.912 0-68.096 17.408t-45.056 47.104-15.872 64.512h59.392q0-32.768 18.944-53.248t50.688-20.48 50.688 20.48 18.944 53.248h59.392q0-34.816-15.872-64.512t-45.056-47.104-68.096-17.408z" />
<glyph unicode="&#x104;" glyph-name="Aogonek" horiz-adv-x="670" d="M9.216 12.8l275.456 716.8h100.352l275.456-716.8h-91.136l-216.064 570.368q-5.12 14.336-9.216 25.088t-9.216 24.064q-4.096-13.312-8.704-24.064t-9.728-25.088l-216.064-570.368h-91.136zM138.24 199.168v79.872h393.216v-79.872h-393.216zM604.16-192q-40.96 0-68.608 26.112t-27.648 69.12q0 41.984 24.064 73.728t55.808 44.032l72.704-8.192q-28.672-16.384-50.688-37.376t-22.016-48.64q0-21.504 12.288-33.792t31.744-12.288q14.336 0 24.064 2.56t19.968 6.656v-68.608q-15.36-6.144-31.744-9.728t-39.936-3.584z" />
<glyph unicode="&#x105;" glyph-name="aogonek" horiz-adv-x="647" d="M296.96-1.536q-71.68 0-129.536 35.328t-91.136 95.744-33.28 136.192 35.328 136.192 93.696 95.744 126.976 35.328q66.56 0 114.688-25.088t75.776-62.976v73.728h77.824v-505.856h-77.824v87.040q-27.648-43.008-75.776-72.192t-116.736-29.184zM308.224 74.24q48.128 0 89.088 23.552t66.56 66.56 25.6 101.376-25.6 101.376-66.56 66.56-89.088 23.552q-49.152 0-90.624-23.552t-66.048-66.56-24.576-101.376 24.576-101.376 66.048-66.56 90.624-23.552zM510.976-192q-40.96 0-68.608 26.112t-27.648 69.12q0 41.984 24.064 73.728t55.808 44.032l72.704-8.192q-28.672-16.384-50.688-37.376t-22.016-48.64q0-21.504 12.288-33.792t31.744-12.288q14.336 0 24.064 2.56t19.968 6.656v-68.608q-15.36-6.144-31.744-9.728t-39.936-3.584z" />
<glyph unicode="&#x106;" glyph-name="Cacute" horiz-adv-x="762" d="M393.216-1.536q-67.584 0-130.048 24.576t-112.128 72.704-78.848 117.248-29.184 158.208 29.184 158.208 78.848 117.248 112.64 72.704 129.536 24.576q83.968 0 153.088-32.256t115.2-91.136 59.392-140.8h-88.064q-13.312 58.368-48.64 99.84t-84.992 62.976-105.984 21.504q-66.56 0-126.464-33.28t-97.792-98.304-37.888-161.28q0-95.232 37.888-160.768t97.792-98.816 126.464-33.28q87.040 0 153.6 48.64t86.016 136.704h88.064q-13.312-81.92-60.416-141.312t-116.224-91.648-151.040-32.256zM356.352 804.352l57.344 136.192h120.832l-104.448-136.192h-73.728z" />
<glyph unicode="&#x107;" glyph-name="cacute" horiz-adv-x="585" d="M301.056-1.536q-73.728 0-132.096 34.816t-92.16 95.232-33.792 137.216 33.792 137.216 92.672 95.232 131.584 34.816q66.56 0 117.248-22.528t81.92-62.976 40.448-95.744h-83.968q-13.312 45.056-53.248 75.264t-102.4 30.208q-47.104 0-87.040-23.040t-63.488-66.048-23.552-102.4 24.064-102.4 64-66.048 86.016-23.040q63.488 0 101.376 29.184t54.272 76.288h83.968q-12.288-55.296-44.032-95.744t-80.896-62.976-114.688-22.528zM264.192 593.408l57.344 136.192h120.832l-104.448-136.192h-73.728z" />
<glyph unicode="&#x10c;" glyph-name="Ccaron" horiz-adv-x="762" d="M393.216-1.536q-67.584 0-130.048 24.576t-112.128 72.704-78.848 117.248-29.184 158.208 29.184 158.208 78.848 117.248 112.64 72.704 129.536 24.576q83.968 0 153.088-32.256t115.2-91.136 59.392-140.8h-88.064q-13.312 58.368-48.64 99.84t-84.992 62.976-105.984 21.504q-66.56 0-126.464-33.28t-97.792-98.304-37.888-161.28q0-95.232 37.888-160.768t97.792-98.816 126.464-33.28q87.040 0 153.6 48.64t86.016 136.704h88.064q-13.312-81.92-60.416-141.312t-116.224-91.648-151.040-32.256zM357.376 804.352l-101.376 136.192h71.68l65.536-70.656 65.536 70.656h71.68l-101.376-136.192h-71.68z" />
<glyph unicode="&#x10d;" glyph-name="ccaron" horiz-adv-x="585" d="M301.056-1.536q-73.728 0-132.096 34.816t-92.16 95.232-33.792 137.216 33.792 137.216 92.672 95.232 131.584 34.816q66.56 0 117.248-22.528t81.92-62.976 40.448-95.744h-83.968q-13.312 45.056-53.248 75.264t-102.4 30.208q-47.104 0-87.040-23.040t-63.488-66.048-23.552-102.4 24.064-102.4 64-66.048 86.016-23.040q63.488 0 101.376 29.184t54.272 76.288h83.968q-12.288-55.296-44.032-95.744t-80.896-62.976-114.688-22.528zM265.216 593.408l-101.376 136.192h71.68l65.536-70.656 65.536 70.656h71.68l-101.376-136.192h-71.68z" />
<glyph unicode="&#x10e;" glyph-name="Dcaron" horiz-adv-x="680" d="M90.112 12.8v716.8h194.56q101.376 0 180.736-41.984t125.44-122.368 46.080-194.048-46.080-194.048-125.44-122.368-180.736-41.984h-194.56zM178.176 92.672h100.352q77.824 0 138.752 31.744t96.256 93.696 35.328 153.088-35.328 153.088-96.256 93.696-138.752 31.744h-100.352v-557.056zM263.168 804.352l-101.376 136.192h71.68l65.536-70.656 65.536 70.656h71.68l-101.376-136.192h-71.68z" />
<glyph unicode="&#x10f;" glyph-name="dcaron" horiz-adv-x="729" d="M296.96-1.536q-71.68 0-129.536 35.328t-91.136 95.744-33.28 136.192q0 57.344 20.48 105.984t55.808 84.48 81.408 56.32 98.304 20.48q66.56 0 113.664-25.6t70.656-58.368v280.576h83.968v-716.8h-77.824v87.040q-27.648-43.008-75.776-72.192t-116.736-29.184zM308.224 74.24q48.128 0 89.088 23.552t66.56 66.56 25.6 101.376-25.6 101.376-66.56 66.56-89.088 23.552q-49.152 0-90.624-23.552t-66.048-66.56-24.576-101.376 24.576-101.376 66.048-66.56 90.624-23.552zM636.928 522.752v49.152h8.192q28.672 0 45.056 12.288t19.456 44.032q-6.144-4.096-19.456-4.096-22.528 0-39.424 16.896t-16.896 42.496 16.896 43.008 42.496 17.408q30.72 0 50.176-21.504t19.456-69.632q0-63.488-31.744-96.768t-81.92-33.28h-12.288z" />
<glyph unicode="&#x110;" glyph-name="Dcroat" horiz-adv-x="680" d="M4.096 334.336v73.728h362.496v-73.728h-362.496zM90.112 12.8v716.8h194.56q101.376 0 180.736-41.984t125.44-122.368 46.080-194.048-46.080-194.048-125.44-122.368-180.736-41.984h-194.56zM178.176 92.672h100.352q77.824 0 138.752 31.744t96.256 93.696 35.328 153.088-35.328 153.088-96.256 93.696-138.752 31.744h-100.352v-557.056z" />
<glyph unicode="&#x111;" glyph-name="dcroat" horiz-adv-x="647" d="M327.68 588.288v71.68h319.488v-71.68h-319.488zM296.96-1.536q-71.68 0-129.536 35.328t-91.136 95.744-33.28 136.192q0 57.344 20.48 105.984t55.808 84.48 81.408 56.32 98.304 20.48q66.56 0 113.664-25.6t70.656-58.368v280.576h83.968v-716.8h-77.824v87.040q-27.648-43.008-75.776-72.192t-116.736-29.184zM308.224 74.24q48.128 0 89.088 23.552t66.56 66.56 25.6 101.376-25.6 101.376-66.56 66.56-89.088 23.552q-49.152 0-90.624-23.552t-66.048-66.56-24.576-101.376 24.576-101.376 66.048-66.56 90.624-23.552z" />
<glyph unicode="&#x112;" glyph-name="Emacron" horiz-adv-x="567" d="M90.112 12.8v716.8h420.864v-79.872h-332.8v-216.064h280.576v-79.872h-280.576v-261.12h335.872v-79.872h-423.936zM178.176 842.24v67.584h247.808v-67.584h-247.808z" />
<glyph unicode="&#x113;" glyph-name="emacron" horiz-adv-x="591" d="M297.984-1.536q-74.752 0-132.608 34.304t-90.112 94.72-32.256 138.24 33.792 138.24 91.136 94.72 129.024 34.304q75.776 0 131.584-31.232t86.528-88.064 30.72-134.656v-26.624h-449.536v67.584h402.432l-32.768-17.408q-4.096 73.728-49.664 116.224t-120.32 42.496q-72.704 0-120.832-52.224t-48.128-145.408v-9.216q0-57.344 23.040-98.304t61.952-62.464 86.016-21.504q63.488 0 103.424 30.72t55.296 76.8h79.872q-22.528-78.848-83.968-130.048t-154.624-51.2zM172.032 631.296v67.584h247.808v-67.584h-247.808z" />
<glyph unicode="&#x116;" glyph-name="Edotaccent" horiz-adv-x="567" d="M90.112 12.8v716.8h420.864v-79.872h-332.8v-216.064h280.576v-79.872h-280.576v-261.12h335.872v-79.872h-423.936zM302.080 815.616q-25.6 0-44.032 18.432t-18.432 44.032q0 26.624 18.432 44.544t44.032 17.92q26.624 0 44.544-17.92t17.92-44.544q0-25.6-17.92-44.032t-44.544-18.432z" />
<glyph unicode="&#x117;" glyph-name="edotaccent" horiz-adv-x="591" d="M297.984-1.536q-74.752 0-132.608 34.304t-90.112 94.72-32.256 138.24 33.792 138.24 91.136 94.72 129.024 34.304q75.776 0 131.584-31.232t86.528-88.064 30.72-134.656v-26.624h-449.536v67.584h402.432l-32.768-17.408q-4.096 73.728-49.664 116.224t-120.32 42.496q-72.704 0-120.832-52.224t-48.128-145.408v-9.216q0-57.344 23.040-98.304t61.952-62.464 86.016-21.504q63.488 0 103.424 30.72t55.296 76.8h79.872q-22.528-78.848-83.968-130.048t-154.624-51.2zM295.936 604.672q-25.6 0-44.032 18.432t-18.432 44.032q0 26.624 18.432 44.544t44.032 17.92q26.624 0 44.544-17.92t17.92-44.544q0-25.6-17.92-44.032t-44.544-18.432z" />
<glyph unicode="&#x118;" glyph-name="Eogonek" horiz-adv-x="567" d="M90.112 12.8v716.8h420.864v-79.872h-332.8v-216.064h280.576v-79.872h-280.576v-261.12h335.872v-79.872h-423.936zM457.728-192q-40.96 0-68.608 26.112t-27.648 69.12q0 41.984 24.064 73.728t55.808 44.032l72.704-8.192q-28.672-16.384-50.688-37.376t-22.016-48.64q0-21.504 12.288-33.792t31.744-12.288q14.336 0 24.064 2.56t19.968 6.656v-68.608q-15.36-6.144-31.744-9.728t-39.936-3.584z" />
<glyph unicode="&#x119;" glyph-name="eogonek" horiz-adv-x="591" d="M297.984-1.536q-74.752 0-132.608 34.304t-90.112 94.72-32.256 138.24 33.792 138.24 91.136 94.72 129.024 34.304q75.776 0 131.584-31.232t86.528-88.064 30.72-134.656v-26.624h-449.536v67.584h402.432l-32.768-17.408q-4.096 73.728-49.664 116.224t-120.32 42.496q-72.704 0-120.832-52.224t-48.128-145.408v-9.216q0-57.344 23.040-98.304t61.952-62.464 86.016-21.504q63.488 0 103.424 30.72t55.296 76.8h79.872q-22.528-78.848-83.968-130.048t-154.624-51.2zM329.728-192q-40.96 0-68.608 26.112t-27.648 69.12q0 41.984 24.064 73.728t55.808 44.032l72.704-8.192q-28.672-16.384-50.688-37.376t-22.016-48.64q0-21.504 12.288-33.792t31.744-12.288q14.336 0 24.064 2.56t19.968 6.656v-68.608q-15.36-6.144-31.744-9.728t-39.936-3.584z" />
<glyph unicode="&#x11a;" glyph-name="Ecaron" horiz-adv-x="567" d="M90.112 12.8v716.8h420.864v-79.872h-332.8v-216.064h280.576v-79.872h-280.576v-261.12h335.872v-79.872h-423.936zM266.24 804.352l-101.376 136.192h71.68l65.536-70.656 65.536 70.656h71.68l-101.376-136.192h-71.68z" />
<glyph unicode="&#x11b;" glyph-name="ecaron" horiz-adv-x="591" d="M297.984-1.536q-74.752 0-132.608 34.304t-90.112 94.72-32.256 138.24 33.792 138.24 91.136 94.72 129.024 34.304q75.776 0 131.584-31.232t86.528-88.064 30.72-134.656v-26.624h-449.536v67.584h402.432l-32.768-17.408q-4.096 73.728-49.664 116.224t-120.32 42.496q-72.704 0-120.832-52.224t-48.128-145.408v-9.216q0-57.344 23.040-98.304t61.952-62.464 86.016-21.504q63.488 0 103.424 30.72t55.296 76.8h79.872q-22.528-78.848-83.968-130.048t-154.624-51.2zM260.096 593.408l-101.376 136.192h71.68l65.536-70.656 65.536 70.656h71.68l-101.376-136.192h-71.68z" />
<glyph unicode="&#x11e;" glyph-name="Gbreve" horiz-adv-x="767" d="M393.216-1.536q-67.584 0-130.048 24.576t-112.128 72.704-78.848 117.248-29.184 158.208 29.184 158.208 78.848 117.248 112.64 72.704 129.536 24.576q81.92 0 148.992-28.16t112.128-80.896 57.344-125.44h-88.064q-12.288 49.152-46.592 83.456t-81.92 52.736-101.888 18.432q-66.56 0-126.464-33.28t-97.792-98.304-37.888-161.28q0-95.232 37.888-160.768t97.792-98.816 126.464-33.28q117.76 0 181.76 65.536t68.096 192.512l43.008-38.912h-269.312v75.776h307.2v-27.648q0-84.992-25.088-150.016t-69.632-109.056-104.96-66.048-131.072-22.016zM394.24 811.52q-38.912 0-68.096 17.408t-45.056 47.104-15.872 64.512h59.392q0-32.768 18.944-53.248t50.688-20.48 50.688 20.48 18.944 53.248h59.392q0-34.816-15.872-64.512t-45.056-47.104-68.096-17.408z" />
<glyph unicode="&#x11f;" glyph-name="gbreve" horiz-adv-x="625" d="M302.080-206.336q-71.68 0-124.416 25.088t-81.408 67.072-31.744 92.16h83.968q5.12-47.104 43.52-77.824t108.032-30.72q73.728 0 117.248 38.4t43.52 113.152v93.184q-26.624-38.912-70.144-64t-109.056-25.088-119.808 32.768-86.528 90.112-32.256 131.072q0 55.296 19.456 101.888t53.248 80.896 77.824 52.736 93.184 18.432q60.416 0 109.056-25.088t71.168-65.024v75.776h77.824v-495.616q0-67.584-31.744-119.296t-86.528-80.896-124.416-29.184zM296.96 100.864q47.104 0 85.504 22.528t61.44 62.976 23.040 92.672q0 53.248-23.040 93.184t-61.44 62.464-85.504 22.528q-46.080 0-84.992-22.528t-61.952-62.464-23.040-93.184q0-52.224 23.040-92.672t61.952-62.976 84.992-22.528zM312.32 600.576q-38.912 0-68.096 17.408t-45.056 47.104-15.872 64.512h59.392q0-32.768 18.944-53.248t50.688-20.48 50.688 20.48 18.944 53.248h59.392q0-34.816-15.872-64.512t-45.056-47.104-68.096-17.408z" />
<glyph unicode="&#x122;" glyph-name="uni0122" horiz-adv-x="767" d="M393.216-1.536q-67.584 0-130.048 24.576t-112.128 72.704-78.848 117.248-29.184 158.208 29.184 158.208 78.848 117.248 112.64 72.704 129.536 24.576q81.92 0 148.992-28.16t112.128-80.896 57.344-125.44h-88.064q-12.288 49.152-46.592 83.456t-81.92 52.736-101.888 18.432q-66.56 0-126.464-33.28t-97.792-98.304-37.888-161.28q0-95.232 37.888-160.768t97.792-98.816 126.464-33.28q117.76 0 181.76 65.536t68.096 192.512l43.008-38.912h-269.312v75.776h307.2v-27.648q0-84.992-25.088-150.016t-69.632-109.056-104.96-66.048-131.072-22.016zM334.848-249.344v45.056h11.264q27.648 0 41.984 12.288t16.384 44.032q-1.024-1.024-6.144-2.048t-10.24-1.024q-21.504 0-35.328 14.848t-13.824 37.376q0 21.504 14.848 36.864t36.352 15.36q29.696 0 46.592-20.992t16.896-61.952q0-60.416-26.624-90.112t-77.824-29.696h-14.336z" />
<glyph unicode="&#x123;" glyph-name="uni0123" horiz-adv-x="625" d="M302.080-206.336q-71.68 0-124.416 25.088t-81.408 67.072-31.744 92.16h83.968q5.12-47.104 43.52-77.824t108.032-30.72q73.728 0 117.248 38.4t43.52 113.152v93.184q-26.624-38.912-70.144-64t-109.056-25.088-119.808 32.768-86.528 90.112-32.256 131.072q0 55.296 19.456 101.888t53.248 80.896 77.824 52.736 93.184 18.432q60.416 0 109.056-25.088t71.168-65.024v75.776h77.824v-495.616q0-67.584-31.744-119.296t-86.528-80.896-124.416-29.184zM296.96 100.864q47.104 0 85.504 22.528t61.44 62.976 23.040 92.672q0 53.248-23.040 93.184t-61.44 62.464-85.504 22.528q-46.080 0-84.992-22.528t-61.952-62.464-23.040-93.184q0-52.224 23.040-92.672t61.952-62.976 84.992-22.528zM371.712 782.848v-45.056h-11.264q-27.648 0-41.984-12.288t-16.384-44.032q1.024 1.024 6.144 2.048t10.24 1.024q21.504 0 35.328-14.848t13.824-37.376q0-21.504-14.848-36.864t-36.352-15.36q-29.696 0-46.592 20.992t-16.896 61.952q0 60.416 26.624 90.112t77.824 29.696h14.336z" />
<glyph unicode="&#x12a;" glyph-name="Imacron" horiz-adv-x="268" d="M90.112 12.8v716.8h88.064v-716.8h-88.064zM10.24 842.24v67.584h247.808v-67.584h-247.808z" />
<glyph unicode="&#x12b;" glyph-name="imacron" horiz-adv-x="244" d="M79.872 12.8v505.856h83.968v-505.856h-83.968zM-2.048 631.296v67.584h247.808v-67.584h-247.808z" />
<glyph unicode="&#x12e;" glyph-name="Iogonek" horiz-adv-x="268" d="M90.112 12.8v716.8h88.064v-716.8h-88.064zM121.856-192q-40.96 0-68.608 26.112t-27.648 69.12q0 41.984 24.064 73.728t55.808 44.032l72.704-8.192q-28.672-16.384-50.688-37.376t-22.016-48.64q0-21.504 12.288-33.792t31.744-12.288q14.336 0 24.064 2.56t19.968 6.656v-68.608q-15.36-6.144-31.744-9.728t-39.936-3.584z" />
<glyph unicode="&#x12f;" glyph-name="iogonek" horiz-adv-x="244" d="M79.872 12.8v505.856h83.968v-505.856h-83.968zM121.856 604.672q-25.6 0-44.032 18.432t-18.432 44.032q0 26.624 18.432 44.544t44.032 17.92q26.624 0 44.544-17.92t17.92-44.544q0-25.6-17.92-44.032t-44.544-18.432zM107.52-192q-40.96 0-68.608 26.112t-27.648 69.12q0 41.984 24.064 73.728t55.808 44.032l72.704-8.192q-28.672-16.384-50.688-37.376t-22.016-48.64q0-21.504 12.288-33.792t31.744-12.288q14.336 0 24.064 2.56t19.968 6.656v-68.608q-15.36-6.144-31.744-9.728t-39.936-3.584z" />
<glyph unicode="&#x130;" glyph-name="Idotaccent" horiz-adv-x="268" d="M90.112 12.8v716.8h88.064v-716.8h-88.064zM134.144 815.616q-25.6 0-44.032 18.432t-18.432 44.032q0 26.624 18.432 44.544t44.032 17.92q26.624 0 44.544-17.92t17.92-44.544q0-25.6-17.92-44.032t-44.544-18.432z" />
<glyph unicode="&#x131;" glyph-name="dotlessi" horiz-adv-x="244" d="M79.872 12.8v505.856h83.968v-505.856h-83.968z" />
<glyph unicode="&#x136;" glyph-name="uni0136" horiz-adv-x="586" d="M456.704 12.8l-283.648 347.136v26.624l277.504 343.040h109.568l-288.768-354.304 293.888-362.496h-108.544zM90.112 12.8v716.8h88.064v-716.8h-88.064zM253.952-249.344v45.056h11.264q27.648 0 41.984 12.288t16.384 44.032q-1.024-1.024-6.144-2.048t-10.24-1.024q-21.504 0-35.328 14.848t-13.824 37.376q0 21.504 14.848 36.864t36.352 15.36q29.696 0 46.592-20.992t16.896-61.952q0-60.416-26.624-90.112t-77.824-29.696h-14.336z" />
<glyph unicode="&#x137;" glyph-name="uni0137" horiz-adv-x="494" d="M79.872 12.8v716.8h83.968v-716.8h-83.968zM361.472 12.8l-209.92 263.168h100.352l209.92-263.168h-100.352zM151.552 275.968l199.68 242.688h101.376l-200.704-242.688h-100.352zM187.392-249.344v45.056h11.264q27.648 0 41.984 12.288t16.384 44.032q-1.024-1.024-6.144-2.048t-10.24-1.024q-21.504 0-35.328 14.848t-13.824 37.376q0 21.504 14.848 36.864t36.352 15.36q29.696 0 46.592-20.992t16.896-61.952q0-60.416-26.624-90.112t-77.824-29.696h-14.336z" />
<glyph unicode="&#x139;" glyph-name="Lacute" horiz-adv-x="567" d="M90.112 12.8v716.8h88.064v-636.928h335.872v-79.872h-423.936zM97.28 804.352l57.344 136.192h120.832l-104.448-136.192h-73.728z" />
<glyph unicode="&#x13a;" glyph-name="lacute" horiz-adv-x="244" d="M79.872 12.8v716.8h83.968v-716.8h-83.968zM84.992 804.352l57.344 136.192h120.832l-104.448-136.192h-73.728z" />
<glyph unicode="&#x13b;" glyph-name="uni013B" horiz-adv-x="567" d="M90.112 12.8v716.8h88.064v-636.928h335.872v-79.872h-423.936zM224.256-249.344v45.056h11.264q27.648 0 41.984 12.288t16.384 44.032q-1.024-1.024-6.144-2.048t-10.24-1.024q-21.504 0-35.328 14.848t-13.824 37.376q0 21.504 14.848 36.864t36.352 15.36q29.696 0 46.592-20.992t16.896-61.952q0-60.416-26.624-90.112t-77.824-29.696h-14.336z" />
<glyph unicode="&#x13c;" glyph-name="uni013C" horiz-adv-x="244" d="M79.872 12.8v716.8h83.968v-716.8h-83.968zM62.464-249.344v45.056h11.264q27.648 0 41.984 12.288t16.384 44.032q-1.024-1.024-6.144-2.048t-10.24-1.024q-21.504 0-35.328 14.848t-13.824 37.376q0 21.504 14.848 36.864t36.352 15.36q29.696 0 46.592-20.992t16.896-61.952q0-60.416-26.624-90.112t-77.824-29.696h-14.336z" />
<glyph unicode="&#x13d;" glyph-name="Lcaron" horiz-adv-x="567" d="M90.112 12.8v716.8h88.064v-636.928h335.872v-79.872h-423.936zM401.408 522.752v49.152h8.192q28.672 0 45.056 12.288t19.456 44.032q-6.144-4.096-19.456-4.096-22.528 0-39.424 16.896t-16.896 42.496 16.896 43.008 42.496 17.408q30.72 0 50.176-21.504t19.456-69.632q0-63.488-31.744-96.768t-81.92-33.28h-12.288z" />
</font>
</defs>
</svg>
